<?xml version="1.0" encoding="utf-8"?>
<!-- Generator: Adobe Illustrator 19.0.0, SVG Export Plug-In . SVG Version: 6.00 Build 0)  -->
<svg version="1.1" id="Capa_1" xmlns="http://www.w3.org/2000/svg" xmlns:xlink="http://www.w3.org/1999/xlink" x="0px" y="0px"
	 viewBox="0 0 47.2 47.2" style="enable-background:new 0 0 47.2 47.2;" xml:space="preserve">
<style type="text/css">
	.st0{fill:#A3BD31;}
	.st1{fill:#819D33;}
	.st2{fill:#FFFFFF;}
</style>
<g id="XMLID_426_">
	<g id="XMLID_373_">
		<circle id="XMLID_393_" class="st0" cx="23.6" cy="23.6" r="23.6"/>
		<path id="XMLID_392_" class="st1" d="M47.3,23.6c0-1.9-0.2-3.7-0.6-5.4L30.9,6.6l-5.2,4.2l-3.9-1.5l1.6,3.3L25,15l-0.1,7.3
			L21.8,21l1.3,3.1l1-0.2v1.2l-1.6,6.2L21,34.1L13.6,39l11.4,8.2C37.8,46.5,47.3,35.9,47.3,23.6z"/>
		<g id="XMLID_368_">
			<ellipse id="XMLID_391_" class="st2" cx="15.7" cy="36.8" rx="3.2" ry="3"/>
			<ellipse id="XMLID_372_" class="st2" cx="20.3" cy="38.6" rx="2.9" ry="2.7"/>
			<ellipse id="XMLID_388_" class="st2" cx="24.9" cy="37.8" rx="4.2" ry="3.8"/>
			<ellipse id="XMLID_387_" class="st2" cx="29.8" cy="36.7" rx="2.6" ry="2.3"/>
			<ellipse id="XMLID_386_" class="st2" cx="27.1" cy="34.3" rx="2.8" ry="2.5"/>
			<ellipse id="XMLID_382_" class="st2" cx="23.6" cy="33.7" rx="2" ry="1.8"/>
			<ellipse id="XMLID_381_" class="st2" cx="20" cy="34" rx="3.1" ry="2.8"/>
			<path id="XMLID_379_" class="st2" d="M22.4,33c-0.3-0.1-0.4-0.6-0.3-1l0,0c2-7,2.2-13.8,2.2-16.4l0,0c0-0.7,0-1.1,0-1.1l0,0
				c0-0.4,0.2-0.8,0.5-0.8l0,0c0.3,0,0.5,0.3,0.6,0.7l0,0c0,0,0,0.4,0,1.2l0,0c0,2.7-0.2,9.7-2.3,16.9l0,0C23,32.8,22.8,33,22.6,33
				l0,0C22.5,33,22.5,33,22.4,33L22.4,33z"/>
			<path id="XMLID_378_" class="st2" d="M32,16.7c0,0-1.1,5-7.1,5.6C24.9,22.3,24.4,15.2,32,16.7z"/>
			<path id="XMLID_377_" class="st2" d="M30.9,6.6c0,0,0.4,5.8-5.9,8.4C25,15,22.2,7.4,30.9,6.6z"/>
			<path id="XMLID_376_" class="st2" d="M29.2,26.6c0,0-1.5,3-5.4,2.3C23.8,28.9,24.7,24.3,29.2,26.6z"/>
			<path id="XMLID_375_" class="st2" d="M18.1,21c0,0,1.2,3.7,5.8,3.7C24,24.7,23.8,19.3,18.1,21z"/>
			<path id="XMLID_374_" class="st2" d="M18.3,9.2c0,0,0.9,4.9,6.6,5.6C25,14.8,25.7,8,18.3,9.2z"/>
		</g>
	</g>
</g>
</svg>
