<?xml version="1.0" encoding="utf-8"?>
<!-- Generator: Adobe Illustrator 19.0.0, SVG Export Plug-In . SVG Version: 6.00 Build 0)  -->
<svg version="1.1" id="Capa_1" xmlns="http://www.w3.org/2000/svg" xmlns:xlink="http://www.w3.org/1999/xlink" x="0px" y="0px"
	 viewBox="0 0 47.2 47.2" style="enable-background:new 0 0 47.2 47.2;" xml:space="preserve">
<style type="text/css">
	.st0{fill:#A3BD31;}
	.st1{fill:#819D33;}
	.st2{fill:#FFFFFF;}
</style>
<g id="XMLID_430_">
	<g id="XMLID_399_">
		<g id="XMLID_427_">
			<circle id="XMLID_428_" class="st0" cx="23.6" cy="23.6" r="23.6"/>
		</g>
		<g id="XMLID_302_">
			<path id="XMLID_439_" class="st1" d="M47.1,26.3c0.1-0.9,0.1-1.8,0.1-2.7c0-1.7-0.2-3.3-0.5-4.9L32.8,8.6l-2.3,0.9l-1.2-0.9
				l-1.1,0.9l-0.6,1.7l1,0.7l-5.1,7.3l-0.1,0.3l-6.9-5.6l-2.8,0.7l9,7.3l-7.3,14.3l13.9,10.5C38.8,44.2,46,36.2,47.1,26.3z"/>
			<polygon id="XMLID_440_" class="st1" points="8.4,23.1 12.7,26.9 13,20.2 9.4,21.5 			"/>
		</g>
		<path id="XMLID_431_" class="st2" d="M36.8,24.6c0-1.2-1.4-2.6-1.4-2.6s-0.9-3.4-1.7-4.7c-1.6-2.8-2.7-4.8-4.3-5.3
			c0.2-0.4,0.4-0.9,0.7-1.3c0.7-1,1.7-1.7,2.6-2.1c-1.7-0.1-3.6,0.7-4.9,2.3c0.3-0.9,0.8-1.6,1.3-2.3c-1.1,0.4-2.1,1.3-2.8,2.4
			c-1.5-0.4-3.4-0.5-5.3-0.2c-3.3,0.5-6.1,1.9-7.5,3.6c0.7-0.1,2.3-0.4,2.7-0.2c0,0-7.5,4.6-8.1,8.8c0.9-0.6,2.1-1.4,2.9-1.4
			c0,0-5.4,10,7.4,16.4c0.6,0.3,1.3,0.5,2,0.7c2.3,0.7,4.5,0.8,6.5,0.6c0.2-0.8,0.3-1.6,0.3-2.5c0.2-4.4-3.4-6.4-3.6-9.9
			c-0.1-1.9,0.7-3.5,1.7-4.6l0.6-0.6c0,0-0.2,2.2,4.1,3.3c1.5,0.4,1.8,1.9,2.2,2.4c0.8,0.9,4.4,0.2,4.3-2.3
			C36.8,24.9,36.8,24.7,36.8,24.6z"/>
	</g>
</g>
</svg>
