<?xml version="1.0" encoding="utf-8"?>
<!-- Generator: Adobe Illustrator 19.0.0, SVG Export Plug-In . SVG Version: 6.00 Build 0)  -->
<svg version="1.1" id="Capa_1" xmlns="http://www.w3.org/2000/svg" xmlns:xlink="http://www.w3.org/1999/xlink" x="0px" y="0px"
	 viewBox="0 0 85.1 86.9" style="enable-background:new 0 0 85.1 86.9;" xml:space="preserve">
<style type="text/css">
	.st0{fill:#6E5128;}
	.st1{fill:#533315;}
	.st2{fill:#A38051;}
	.st3{fill:#82623C;}
	.st4{fill:#BC9E6C;}
	.st5{fill:#393939;}
	.st6{fill:#1D1D1D;}
</style>
<g id="XMLID_2393_">
	<g id="XMLID_2394_">
		<g id="XMLID_2420_">
			<g id="XMLID_2396_">
				<g id="XMLID_2652_">
					<g id="XMLID_2654_">
						<g id="XMLID_2655_">
							<path id="XMLID_155_" class="st0" d="M5.4,86.9h6.7l1.1-5.9c-2.5-0.6-4.8-1.4-6.7-2.3L5.4,86.9z"/>
						</g>
					</g>
					<g id="XMLID_2653_">
						<polygon id="XMLID_154_" class="st1" points="12.1,86.9 13.4,85.5 14.5,81.3 13.1,81 						"/>
					</g>
				</g>
				<g id="XMLID_2648_">
					<g id="XMLID_2650_">
						<g id="XMLID_2651_">
							<path id="XMLID_153_" class="st0" d="M37.5,86.9h-6.7L29.7,81c2.5-0.6,4.8-1.4,6.7-2.3L37.5,86.9z"/>
						</g>
					</g>
					<g id="XMLID_2649_">
						<polygon id="XMLID_152_" class="st1" points="30.8,86.9 29.4,85.5 28.3,81.3 29.7,81 						"/>
					</g>
				</g>
			</g>
			<g id="XMLID_2504_">
				<g id="XMLID_2585_">
					<g id="XMLID_2589_">
						<path id="XMLID_151_" class="st2" d="M18.3,55.8C15.1,68,8.9,77.4,4.5,75.9c-4.4-1.5-6.1-11.5-2.8-23.7
							c3.3-12.2,9.9-18,14.4-16.8S21.4,43.6,18.3,55.8z"/>
					</g>
					<g id="XMLID_2588_">
						<path id="XMLID_150_" class="st2" d="M24.5,55.8c3.1,12.2,9.4,21.6,13.8,20.1c4.4-1.5,6.1-11.5,2.8-23.7
							C37.8,40,31.7,34.3,27.3,35.5S21.4,43.6,24.5,55.8z"/>
					</g>
					<g id="XMLID_2587_">
						<path id="XMLID_149_" class="st2" d="M36.1,45.2c0,7.8-6.6,12.6-14.7,12.6S6.7,53,6.7,45.2s6.6-11.6,14.7-11.6
							S36.1,37.4,36.1,45.2z"/>
					</g>
					<g id="XMLID_2586_">
						<polygon id="XMLID_148_" class="st2" points="42.4,60.4 0.7,60.3 7,43.1 35.7,43.1 						"/>
					</g>
				</g>
				<g id="XMLID_2584_">
					<path id="XMLID_147_" class="st3" d="M42.8,65.1c0,11.4-9.6,20.6-21.4,20.6S0,76.3,0,64.9s9.6-20.4,21.4-20.4
						S42.8,53.7,42.8,65.1z"/>
				</g>
				<g id="XMLID_2583_">
					<path id="XMLID_146_" class="st0" d="M21.5,46.7c11.4,0,20.7,8.6,21.3,19.5c0-0.4,0-0.7,0-1.1c0-11.4-9.6-20.6-21.4-20.6
						s-21.4,9-21.4,20.4c0,0.4,0,0.8,0,1.1C0.7,55.1,10.1,46.7,21.5,46.7z"/>
				</g>
				<g id="XMLID_2582_">
					<ellipse id="XMLID_145_" class="st0" cx="21.4" cy="66.5" rx="19.1" ry="17.8"/>
				</g>
				<g id="XMLID_2581_">
					<path id="XMLID_144_" d="M33.8,53.8c0,0-0.1-0.1-0.1-0.1c-1.7-1.7-3.8-3-6-3.9c0,0-0.1,0-0.1,0c-1.9-0.7-3.9-1.1-6-1.1
						c0,0,0,0-0.1,0s0,0-0.1,0c-2.1,0-4.2,0.4-6,1.1c0,0-0.1,0-0.1,0c-2.3,0.9-4.3,2.2-6,3.9c0,0-0.1,0.1-0.1,0.1
						C5.8,57,3.9,61.4,3.9,66.3s2,9.3,5.2,12.5c0,0,0.1,0.1,0.1,0.1c1.7,1.7,3.8,3,6,3.9c0,0,0.1,0,0.1,0c1.9,0.7,3.9,1.1,6,1.1
						c0,0,0,0,0.1,0s0,0,0.1,0c2.1,0,4.2-0.4,6-1.1c0,0,0.1,0,0.1,0c2.3-0.9,4.3-2.2,6-3.9c0,0,0.1-0.1,0.1-0.1
						c3.2-3.2,5.2-7.6,5.2-12.5S37,57,33.8,53.8z"/>
				</g>
				<g id="XMLID_2552_">
					<g id="XMLID_129_">
						<path id="XMLID_143_" d="M33.9,78.8c0.4-0.4,0.8-0.8,1.2-1.2c0.7-7.1,1.3-14.2,2-21.2c-0.3-0.5-0.7-1-1.1-1.4
							C35.3,62.9,34.6,70.9,33.9,78.8z"/>
						<path id="XMLID_139_" d="M21.5,48.7C21.4,48.7,21.4,48.7,21.5,48.7c-0.1,0-0.1,0-0.1,0c-0.2,0-0.4,0-0.6,0
							c0,11.7,0.1,23.4,0.1,35.1c0.2,0,0.3,0,0.5,0c0,0,0,0,0.1,0c0,0,0,0,0.1,0c0.2,0,0.3,0,0.5,0c0-11.7,0.1-23.4,0.1-35.1
							C21.9,48.7,21.7,48.7,21.5,48.7z"/>
						<path id="XMLID_138_" d="M5.7,56.4c0.7,7.1,1.3,14.2,2,21.3c0.4,0.4,0.8,0.8,1.2,1.2c-0.7-8-1.4-15.9-2.1-23.9
							C6.4,55.4,6,55.9,5.7,56.4z"/>
						<path id="XMLID_137_" d="M14.2,50c-0.4,0.1-0.8,0.3-1.2,0.5c0.5,10.6,1,21.3,1.6,31.9c0.3,0.1,0.7,0.3,1,0.4c0,0,0,0,0.1,0
							C15.1,71.9,14.7,60.9,14.2,50C14.2,50,14.2,50,14.2,50z"/>
						<path id="XMLID_136_" d="M28.7,50C28.6,50,28.6,50,28.7,50c-0.5,10.9-1,21.9-1.4,32.8c0,0,0,0,0.1,0c0.3-0.1,0.7-0.2,1-0.4
							c0.5-10.6,1-21.3,1.6-31.9C29.5,50.3,29.1,50.2,28.7,50z"/>
						<path id="XMLID_135_" class="st4" d="M2.9,67.5c0.5,4,2.3,7.5,4.8,10.2c-0.7-7.1-1.3-14.2-2-21.3C3.4,59.6,2.4,63.5,2.9,67.5z
							"/>
						<path id="XMLID_134_" class="st2" d="M7.4,54.3c0,0-0.1,0.1-0.1,0.1C7.1,54.6,7,54.8,6.8,55c0.7,8,1.4,15.9,2.1,23.9
							C9,79,9.2,79.1,9.4,79.3c0,0,0.1,0.1,0.1,0.1c1.5,1.3,3.2,2.3,5.1,3.1c-0.5-10.6-1-21.3-1.6-31.9C10.8,51.5,9,52.8,7.4,54.3z"
							/>
						<path id="XMLID_133_" class="st4" d="M14.3,50C14.3,50,14.3,50,14.3,50c0.4,11,0.9,21.9,1.3,32.9c0,0,0,0,0,0
							c1.7,0.6,3.4,0.9,5.3,0.9c0-11.7-0.1-23.4-0.1-35.1C18.5,48.8,16.3,49.2,14.3,50z"/>
						<path id="XMLID_132_" class="st2" d="M28.5,50c-2-0.7-4.2-1.2-6.5-1.2c0,11.7-0.1,23.4-0.1,35.1c1.8-0.1,3.6-0.4,5.3-0.9
							c0,0,0,0,0,0C27.7,71.9,28.1,60.9,28.5,50C28.6,50,28.6,50,28.5,50z"/>
						<path id="XMLID_131_" class="st4" d="M35.5,54.4c0,0-0.1-0.1-0.1-0.1c-1.5-1.6-3.4-2.9-5.5-3.8c-0.5,10.6-1,21.3-1.6,31.9
							c1.8-0.7,3.5-1.8,5-3.1c0,0,0.1-0.1,0.1-0.1c0.2-0.1,0.3-0.3,0.5-0.4c0.7-7.9,1.4-15.9,2.1-23.8
							C35.8,54.8,35.7,54.6,35.5,54.4z"/>
						<path id="XMLID_130_" class="st2" d="M40,67.5c0.5-4-0.5-7.9-2.8-11.1c-0.7,7.1-1.3,14.2-2,21.2C37.6,74.9,39.5,71.5,40,67.5z
							"/>
					</g>
				</g>
				<g id="XMLID_2529_">
					<g id="XMLID_126_">
						<path id="XMLID_128_" class="st0" d="M33.2,67.7c-0.1,1.1-0.9,1.9-1.9,1.9s-1.8-0.8-1.9-1.9c-0.1-1.1,0.7-2.1,1.9-2.1
							C32.5,65.7,33.3,66.7,33.2,67.7z"/>
						<path id="XMLID_127_" class="st3" d="M33.3,67.2c-0.1,0.9-0.9,1.6-1.9,1.6c-1,0-1.8-0.7-1.9-1.6c-0.1-0.9,0.8-1.8,1.9-1.8
							C32.5,65.5,33.4,66.3,33.3,67.2z"/>
					</g>
				</g>
				<g id="XMLID_2528_">
					<path id="XMLID_125_" class="st4" d="M14.4,45.6l2.2-11.7l4.3-0.4l0,10.9c0,0-2.3,0.2-3.1,0.3C16.7,44.9,14.4,45.6,14.4,45.6z"
						/>
				</g>
				<g id="XMLID_2527_">
					<path id="XMLID_124_" class="st2" d="M14.4,45.6L16.1,34l-4.3,1.7L7.3,49.6c0,0,2.6-1.8,3.5-2.3C11.6,46.8,14.4,45.6,14.4,45.6
						z"/>
				</g>
				<g id="XMLID_2526_">
					<path id="XMLID_123_" class="st4" d="M11.8,35.7L7.3,49.6c0,0-2.5,2.1-4.5,5.3C1.2,57.3,0,62.6,0,62.6s0.4-7.8,2.5-13.2
						C4.2,44.9,7.7,38,11.8,35.7z"/>
				</g>
				<g id="XMLID_2525_">
					<path id="XMLID_122_" class="st2" d="M27.7,45.6l-2.3-11.9l-4.6-0.2l0,10.9c0,0,2.4,0.2,3.2,0.3C25.2,44.9,27.7,45.6,27.7,45.6
						z"/>
				</g>
				<g id="XMLID_2524_">
					<path id="XMLID_121_" class="st4" d="M27.7,45.6l-2.3-11.9l4.9,1.7l4.8,14.2c0,0-2.7-1.8-3.6-2.3
						C30.6,46.8,27.7,45.6,27.7,45.6z"/>
				</g>
				<g id="XMLID_2523_">
					<path id="XMLID_120_" class="st2" d="M30.3,35.4l4.8,14.1c0,0,2.6,2.1,4.8,5.3c1.6,2.4,2.9,7.4,2.9,7.4s-0.6-8.4-2.7-13.8
						C38.3,44,34.7,37.7,30.3,35.4z"/>
				</g>
				<g id="XMLID_2522_">
					<polygon id="XMLID_119_" points="13.5,46 16.1,34 16.6,33.9 14.6,45.5 					"/>
				</g>
				<g id="XMLID_2521_">
					<polygon id="XMLID_118_" points="20.8,44.4 20.9,33.5 21.5,33.5 22.1,44.5 					"/>
				</g>
				<g id="XMLID_2520_">
					<polygon id="XMLID_117_" points="27.7,45.6 25.4,33.7 26.2,33.9 29.4,46.3 					"/>
				</g>
				<g id="XMLID_2510_">
					<polygon id="XMLID_116_" points="35.1,49.6 30.3,35.4 30.9,35.8 37.1,51.5 					"/>
				</g>
				<g id="XMLID_2508_">
					<g id="XMLID_2509_">
						<path id="XMLID_115_" d="M7.4,49.4c1.7-5.5,2.5-9,5.2-14c-0.5,0.2-0.3,0-0.7,0.2C9.3,40.1,7.1,45.9,5.8,51
							C6.4,50.3,6.8,50,7.4,49.4z"/>
					</g>
				</g>
				<g id="XMLID_2505_">
					<g id="XMLID_2507_">
						<path id="XMLID_114_" class="st5" d="M1.6,52.9c1.1-8.6,9.6-14.2,19.9-14.2s18.7,5.6,19.9,14.2l0,0
							c-1-10.5-11.5-16.7-19.9-16.7C12.1,36.2,2.8,42.4,1.6,52.9L1.6,52.9z"/>
					</g>
					<g id="XMLID_2506_">
						<path id="XMLID_113_" class="st6" d="M21.5,38C13.1,38,6,41.7,3,47.7c-0.7,1.6-1.2,3.3-1.4,5.2c1.1-8.6,9.6-14.2,19.9-14.2
							c10.3,0,18.7,5.6,19.9,14.2c-0.2-1.9-0.7-3.7-1.4-5.3C36.9,41.7,29.8,38,21.5,38z"/>
					</g>
				</g>
			</g>
		</g>
		<g id="XMLID_2397_">
			<g id="XMLID_2572_">
				<g id="XMLID_2577_">
					<g id="XMLID_2579_">
						<g id="XMLID_2580_">
							<path id="XMLID_112_" class="st0" d="M47.6,86.9h6.7l1.1-5.9c-2.5-0.6-4.8-1.4-6.7-2.3L47.6,86.9z"/>
						</g>
					</g>
					<g id="XMLID_2578_">
						<polygon id="XMLID_111_" class="st1" points="54.3,86.9 55.7,85.5 56.8,81.3 55.4,81 						"/>
					</g>
				</g>
				<g id="XMLID_2573_">
					<g id="XMLID_2575_">
						<g id="XMLID_2576_">
							<path id="XMLID_110_" class="st0" d="M79.7,86.9H73L71.9,81c2.5-0.6,4.8-1.4,6.7-2.3L79.7,86.9z"/>
						</g>
					</g>
					<g id="XMLID_2574_">
						<polygon id="XMLID_109_" class="st1" points="73,86.9 71.6,85.5 70.5,81.3 71.9,81 						"/>
					</g>
				</g>
			</g>
			<g id="XMLID_2398_">
				<g id="XMLID_2550_">
					<g id="XMLID_2571_">
						<path id="XMLID_108_" class="st2" d="M60.5,55.8C57.4,68,51.1,77.4,46.8,75.9c-4.4-1.5-6.1-11.5-2.8-23.7
							c3.3-12.2,9.9-18,14.4-16.8S63.7,43.6,60.5,55.8z"/>
					</g>
					<g id="XMLID_2570_">
						<path id="XMLID_107_" class="st2" d="M66.8,55.8c3.1,12.2,9.4,21.6,13.8,20.1c4.4-1.5,6.1-11.5,2.8-23.7
							C80,40,74,34.3,69.5,35.5C65,36.6,63.6,43.6,66.8,55.8z"/>
					</g>
					<g id="XMLID_2569_">
						<path id="XMLID_106_" class="st2" d="M78.4,45.2c0,7.8-6.6,12.6-14.7,12.6S48.9,53,48.9,45.2s6.6-11.6,14.7-11.6
							S78.4,37.4,78.4,45.2z"/>
					</g>
					<g id="XMLID_2551_">
						<polygon id="XMLID_105_" class="st2" points="84.6,60.4 42.9,60.3 49.2,43.1 77.9,43.1 						"/>
					</g>
				</g>
				<g id="XMLID_2549_">
					<path id="XMLID_104_" class="st3" d="M85,65.1c0,11.4-9.6,20.6-21.4,20.6s-21.4-9.4-21.4-20.8s9.6-20.4,21.4-20.4
						S85,53.7,85,65.1z"/>
				</g>
				<g id="XMLID_2502_">
					<path id="XMLID_103_" class="st0" d="M63.7,46.7c11.4,0,20.7,8.6,21.3,19.5c0-0.4,0-0.7,0-1.1c0-11.4-9.6-20.6-21.4-20.6
						s-21.4,9-21.4,20.4c0,0.4,0,0.8,0,1.1C42.9,55.1,52.3,46.7,63.7,46.7z"/>
				</g>
				<g id="XMLID_2501_">
					<ellipse id="XMLID_102_" class="st0" cx="63.7" cy="66.5" rx="19.1" ry="17.8"/>
				</g>
				<g id="XMLID_2499_">
					<path id="XMLID_101_" d="M76,53.8c0,0-0.1-0.1-0.1-0.1c-1.7-1.7-3.8-3-6-3.9c0,0-0.1,0-0.1,0c-1.9-0.7-3.9-1.1-6-1.1
						c0,0,0,0-0.1,0s0,0-0.1,0c-2.1,0-4.2,0.4-6,1.1c0,0-0.1,0-0.1,0c-2.3,0.9-4.3,2.2-6,3.9c0,0-0.1,0.1-0.1,0.1
						c-3.2,3.2-5.2,7.6-5.2,12.5s2,9.3,5.2,12.5c0,0,0.1,0.1,0.1,0.1c1.7,1.7,3.8,3,6,3.9c0,0,0.1,0,0.1,0c1.9,0.7,3.9,1.1,6,1.1
						c0,0,0,0,0.1,0s0,0,0.1,0c2.1,0,4.2-0.4,6-1.1c0,0,0.1,0,0.1,0c2.3-0.9,4.3-2.2,6-3.9c0,0,0.1-0.1,0.1-0.1
						c3.2-3.2,5.2-7.6,5.2-12.5S79.2,57,76,53.8z"/>
				</g>
				<g id="XMLID_2427_">
					<g id="XMLID_46_">
						<path id="XMLID_100_" d="M76.2,78.8c0.4-0.4,0.8-0.8,1.2-1.2c0.7-7.1,1.3-14.2,2-21.2c-0.3-0.5-0.7-1-1.1-1.4
							C77.6,62.9,76.9,70.9,76.2,78.8z"/>
						<path id="XMLID_99_" d="M63.7,48.7C63.7,48.7,63.7,48.7,63.7,48.7c-0.1,0-0.1,0-0.1,0c-0.2,0-0.4,0-0.6,0
							c0,11.7,0.1,23.4,0.1,35.1c0.2,0,0.3,0,0.5,0c0,0,0,0,0.1,0c0,0,0,0,0.1,0c0.2,0,0.3,0,0.5,0c0-11.7,0.1-23.4,0.1-35.1
							C64.1,48.7,63.9,48.7,63.7,48.7z"/>
						<path id="XMLID_98_" d="M47.9,56.4c0.7,7.1,1.3,14.2,2,21.3c0.4,0.4,0.8,0.8,1.2,1.2c-0.7-8-1.4-15.9-2.1-23.9
							C48.7,55.4,48.3,55.9,47.9,56.4z"/>
						<path id="XMLID_54_" d="M56.4,50c-0.4,0.1-0.8,0.3-1.2,0.5c0.5,10.6,1,21.3,1.6,31.9c0.3,0.1,0.7,0.3,1,0.4c0,0,0,0,0.1,0
							C57.4,71.9,56.9,60.9,56.4,50C56.5,50,56.4,50,56.4,50z"/>
						<path id="XMLID_53_" d="M70.9,50C70.9,50,70.9,50,70.9,50c-0.5,10.9-1,21.9-1.4,32.8c0,0,0,0,0.1,0c0.3-0.1,0.7-0.2,1-0.4
							c0.5-10.6,1-21.3,1.6-31.9C71.7,50.3,71.3,50.2,70.9,50z"/>
						<path id="XMLID_52_" class="st4" d="M45.1,67.5c0.5,4,2.3,7.5,4.8,10.2c-0.7-7.1-1.3-14.2-2-21.3
							C45.7,59.6,44.6,63.5,45.1,67.5z"/>
						<path id="XMLID_51_" class="st2" d="M49.7,54.3c0,0-0.1,0.1-0.1,0.1c-0.2,0.2-0.3,0.3-0.5,0.5c0.7,8,1.4,15.9,2.1,23.9
							c0.2,0.1,0.3,0.3,0.5,0.4c0,0,0.1,0.1,0.1,0.1c1.5,1.3,3.2,2.3,5.1,3.1c-0.5-10.6-1-21.3-1.6-31.9
							C53.1,51.5,51.2,52.8,49.7,54.3z"/>
						<path id="XMLID_50_" class="st4" d="M56.5,50C56.5,50,56.5,50,56.5,50c0.4,11,0.9,21.9,1.3,32.9c0,0,0,0,0,0
							c1.7,0.6,3.4,0.9,5.3,0.9c0-11.7-0.1-23.4-0.1-35.1C60.7,48.8,58.5,49.2,56.5,50z"/>
						<path id="XMLID_49_" class="st2" d="M70.8,50c-2-0.7-4.2-1.2-6.5-1.2c0,11.7-0.1,23.4-0.1,35.1c1.8-0.1,3.6-0.4,5.3-0.9
							c0,0,0,0,0,0C69.9,71.9,70.4,60.9,70.8,50C70.8,50,70.8,50,70.8,50z"/>
						<path id="XMLID_48_" class="st4" d="M77.8,54.4c0,0-0.1-0.1-0.1-0.1c-1.5-1.6-3.4-2.9-5.5-3.8c-0.5,10.6-1,21.3-1.6,31.9
							c1.8-0.7,3.5-1.8,5-3.1c0,0,0.1-0.1,0.1-0.1c0.2-0.1,0.3-0.3,0.5-0.4c0.7-7.9,1.4-15.9,2.1-23.8
							C78.1,54.8,77.9,54.6,77.8,54.4z"/>
						<path id="XMLID_47_" class="st2" d="M82.2,67.5c0.5-4-0.5-7.9-2.8-11.1c-0.7,7.1-1.3,14.2-2,21.2
							C79.9,74.9,81.7,71.5,82.2,67.5z"/>
					</g>
				</g>
				<g id="XMLID_2414_">
					<g id="XMLID_43_">
						<path id="XMLID_45_" class="st0" d="M75.5,67.7c-0.1,1.1-0.9,1.9-1.9,1.9c-0.9,0-1.8-0.8-1.9-1.9c-0.1-1.1,0.7-2.1,1.9-2.1
							C74.7,65.7,75.6,66.7,75.5,67.7z"/>
						<path id="XMLID_44_" class="st3" d="M75.5,67.2c-0.1,0.9-0.9,1.6-1.9,1.6c-1,0-1.8-0.7-1.9-1.6c-0.1-0.9,0.8-1.8,1.9-1.8
							C74.8,65.5,75.6,66.3,75.5,67.2z"/>
					</g>
				</g>
				<g id="XMLID_2413_">
					<path id="XMLID_97_" class="st4" d="M56.6,45.6l2.2-11.7l4.3-0.4l0,10.9c0,0-2.3,0.2-3.1,0.3C58.9,44.9,56.6,45.6,56.6,45.6z"
						/>
				</g>
				<g id="XMLID_2412_">
					<path id="XMLID_96_" class="st2" d="M56.6,45.6L58.4,34l-4.3,1.7l-4.6,13.8c0,0,2.6-1.8,3.5-2.3C53.8,46.8,56.6,45.6,56.6,45.6
						z"/>
				</g>
				<g id="XMLID_2411_">
					<path id="XMLID_95_" class="st4" d="M54.1,35.7l-4.6,13.8c0,0-2.5,2.1-4.5,5.3c-1.6,2.4-2.7,7.7-2.7,7.7s0.4-7.8,2.5-13.2
						C46.4,44.9,50,38,54.1,35.7z"/>
				</g>
				<g id="XMLID_2410_">
					<path id="XMLID_94_" class="st2" d="M69.9,45.6l-2.3-11.9l-4.6-0.2l0,10.9c0,0,2.4,0.2,3.2,0.3C67.5,44.9,69.9,45.6,69.9,45.6z
						"/>
				</g>
				<g id="XMLID_2409_">
					<path id="XMLID_93_" class="st4" d="M69.9,45.6l-2.3-11.9l4.9,1.7l4.8,14.2c0,0-2.7-1.8-3.6-2.3C72.8,46.8,69.9,45.6,69.9,45.6
						z"/>
				</g>
				<g id="XMLID_2408_">
					<path id="XMLID_92_" class="st2" d="M72.6,35.4l4.8,14.1c0,0,2.6,2.1,4.8,5.3c1.6,2.4,2.9,7.4,2.9,7.4s-0.6-8.4-2.7-13.8
						C80.6,44,76.9,37.7,72.6,35.4z"/>
				</g>
				<g id="XMLID_2407_">
					<polygon id="XMLID_91_" points="55.7,46 58.4,34 58.8,33.9 56.9,45.5 					"/>
				</g>
				<g id="XMLID_2406_">
					<polygon id="XMLID_90_" points="63.1,44.4 63.1,33.5 63.7,33.5 64.3,44.5 					"/>
				</g>
				<g id="XMLID_2405_">
					<polygon id="XMLID_89_" points="69.9,45.6 67.7,33.7 68.5,33.9 71.6,46.3 					"/>
				</g>
				<g id="XMLID_2404_">
					<polygon id="XMLID_88_" points="77.4,49.6 72.6,35.4 73.2,35.8 79.3,51.5 					"/>
				</g>
				<g id="XMLID_2402_">
					<g id="XMLID_2403_">
						<path id="XMLID_87_" d="M49.7,49.4c1.7-5.5,2.5-9,5.2-14c-0.5,0.2-0.3,0-0.7,0.2c-2.6,4.5-4.8,10.3-6.1,15.3
							C48.6,50.3,49.1,50,49.7,49.4z"/>
					</g>
				</g>
				<g id="XMLID_2399_">
					<g id="XMLID_2401_">
						<path id="XMLID_86_" class="st5" d="M43.9,52.9c1.1-8.6,9.6-14.2,19.9-14.2s18.7,5.6,19.9,14.2l0,0
							c-1-10.5-11.5-16.7-19.9-16.7C54.3,36.2,45.1,42.4,43.9,52.9L43.9,52.9z"/>
					</g>
					<g id="XMLID_2400_">
						<path id="XMLID_85_" class="st6" d="M63.7,38c-8.3,0-15.5,3.7-18.5,9.7c-0.7,1.6-1.2,3.3-1.4,5.2c1.1-8.6,9.6-14.2,19.9-14.2
							c10.3,0,18.7,5.6,19.9,14.2c-0.2-1.9-0.7-3.7-1.4-5.3C79.1,41.7,72,38,63.7,38z"/>
					</g>
				</g>
			</g>
		</g>
	</g>
	<g id="XMLID_2395_">
		<g id="XMLID_2514_">
			<g id="XMLID_2518_">
				<path id="XMLID_84_" class="st2" d="M39.4,22.3C36.3,34.5,30,43.9,25.6,42.4c-4.4-1.5-6.1-11.5-2.8-23.7
					c3.3-12.2,9.9-18,14.4-16.8S42.5,10.1,39.4,22.3z"/>
			</g>
			<g id="XMLID_2517_">
				<path id="XMLID_83_" class="st2" d="M45.7,22.3c3.1,12.2,9.4,21.6,13.8,20.1c4.4-1.5,6.1-11.5,2.8-23.7
					C58.9,6.5,52.9,0.8,48.4,2S42.5,10.1,45.7,22.3z"/>
			</g>
			<g id="XMLID_2516_">
				<path id="XMLID_82_" class="st2" d="M57.2,11.7c0,7.8-6.6,12.6-14.7,12.6s-14.7-4.7-14.7-12.6S34.4,0.1,42.5,0.1
					S57.2,3.9,57.2,11.7z"/>
			</g>
			<g id="XMLID_2515_">
				<polygon id="XMLID_81_" class="st2" points="63.5,26.9 21.8,26.8 28.1,9.6 56.8,9.6 				"/>
			</g>
		</g>
		<g id="XMLID_2513_">
			<path id="XMLID_80_" class="st3" d="M63.9,31.6c0,11.4-9.6,20.6-21.4,20.6s-21.4-9.4-21.4-20.8S30.7,11,42.5,11
				S63.9,20.2,63.9,31.6z"/>
		</g>
		<g id="XMLID_2500_">
			<path id="XMLID_79_" class="st0" d="M42.6,13.2c11.4,0,20.7,8.6,21.3,19.5c0-0.4,0-0.7,0-1.1c0-11.4-9.6-20.6-21.4-20.6
				s-21.4,9-21.4,20.4c0,0.4,0,0.8,0,1.1C21.8,21.6,31.2,13.2,42.6,13.2z"/>
		</g>
		<g id="XMLID_2512_">
			<ellipse id="XMLID_78_" class="st0" cx="42.5" cy="33" rx="19.1" ry="17.8"/>
		</g>
		<g id="XMLID_2511_">
			<path id="XMLID_77_" d="M54.9,20.3c0,0-0.1-0.1-0.1-0.1c-1.7-1.7-3.8-3-6-3.9c0,0-0.1,0-0.1,0c-1.9-0.7-3.9-1.1-6-1.1
				c0,0,0,0-0.1,0s0,0-0.1,0c-2.1,0-4.2,0.4-6,1.1c0,0-0.1,0-0.1,0c-2.3,0.9-4.3,2.2-6,3.9c0,0-0.1,0.1-0.1,0.1
				C27,23.5,25,27.9,25,32.8s2,9.3,5.2,12.5c0,0,0.1,0.1,0.1,0.1c1.7,1.7,3.8,3,6,3.9c0,0,0.1,0,0.1,0c1.9,0.7,3.9,1.1,6,1.1
				c0,0,0,0,0.1,0s0,0,0.1,0c2.1,0,4.2-0.4,6-1.1c0,0,0.1,0,0.1,0c2.3-0.9,4.3-2.2,6-3.9c0,0,0.1-0.1,0.1-0.1
				c3.2-3.2,5.2-7.6,5.2-12.5S58.1,23.5,54.9,20.3z"/>
		</g>
		<g id="XMLID_2482_">
			<g id="XMLID_31_">
				<path id="XMLID_42_" d="M55.1,45.3c0.4-0.4,0.8-0.8,1.2-1.2c0.7-7.1,1.3-14.2,2-21.2c-0.3-0.5-0.7-1-1.1-1.4
					C56.4,29.4,55.8,37.4,55.1,45.3z"/>
				<path id="XMLID_41_" d="M42.6,15.2C42.6,15.2,42.6,15.2,42.6,15.2c-0.1,0-0.1,0-0.1,0c-0.2,0-0.4,0-0.6,0
					c0,11.7,0.1,23.4,0.1,35.1c0.2,0,0.3,0,0.5,0c0,0,0,0,0.1,0c0,0,0,0,0.1,0c0.2,0,0.3,0,0.5,0c0-11.7,0.1-23.4,0.1-35.1
					C43,15.2,42.8,15.2,42.6,15.2z"/>
				<path id="XMLID_40_" d="M26.8,22.9c0.7,7.1,1.3,14.2,2,21.3c0.4,0.4,0.8,0.8,1.2,1.2c-0.7-8-1.4-15.9-2.1-23.9
					C27.5,21.9,27.2,22.4,26.8,22.9z"/>
				<path id="XMLID_39_" d="M35.3,16.5c-0.4,0.1-0.8,0.3-1.2,0.5c0.5,10.6,1,21.3,1.6,31.9c0.3,0.1,0.7,0.3,1,0.4c0,0,0,0,0.1,0
					C36.3,38.4,35.8,27.4,35.3,16.5C35.3,16.5,35.3,16.5,35.3,16.5z"/>
				<path id="XMLID_38_" d="M49.8,16.5C49.8,16.5,49.7,16.5,49.8,16.5c-0.5,10.9-1,21.9-1.4,32.8c0,0,0,0,0.1,0
					c0.3-0.1,0.7-0.2,1-0.4c0.5-10.6,1-21.3,1.6-31.9C50.6,16.8,50.2,16.7,49.8,16.5z"/>
				<path id="XMLID_37_" class="st4" d="M24,34c0.5,4,2.3,7.5,4.8,10.2c-0.7-7.1-1.3-14.2-2-21.3C24.5,26.1,23.5,30,24,34z"/>
				<path id="XMLID_36_" class="st2" d="M28.5,20.8c0,0-0.1,0.1-0.1,0.1c-0.2,0.2-0.3,0.3-0.5,0.5c0.7,8,1.4,15.9,2.1,23.9
					c0.2,0.1,0.3,0.3,0.5,0.4c0,0,0.1,0.1,0.1,0.1c1.5,1.3,3.2,2.3,5.1,3.1c-0.5-10.6-1-21.3-1.6-31.9C32,18,30.1,19.3,28.5,20.8z"
					/>
				<path id="XMLID_35_" class="st4" d="M35.4,16.5C35.4,16.5,35.4,16.5,35.4,16.5c0.4,11,0.9,21.9,1.3,32.9c0,0,0,0,0,0
					c1.7,0.6,3.4,0.9,5.3,0.9c0-11.7-0.1-23.4-0.1-35.1C39.6,15.3,37.4,15.7,35.4,16.5z"/>
				<path id="XMLID_34_" class="st2" d="M49.7,16.5c-2-0.7-4.2-1.2-6.5-1.2c0,11.7-0.1,23.4-0.1,35.1c1.8-0.1,3.6-0.4,5.3-0.9
					c0,0,0,0,0,0C48.8,38.4,49.3,27.4,49.7,16.5C49.7,16.5,49.7,16.5,49.7,16.5z"/>
				<path id="XMLID_33_" class="st4" d="M56.6,20.9c0,0-0.1-0.1-0.1-0.1C55,19.3,53.1,18,51,17c-0.5,10.6-1,21.3-1.6,31.9
					c1.8-0.7,3.5-1.8,5-3.1c0,0,0.1-0.1,0.1-0.1c0.2-0.1,0.3-0.3,0.5-0.4c0.7-7.9,1.4-15.9,2.1-23.8C57,21.3,56.8,21.1,56.6,20.9z"
					/>
				<path id="XMLID_32_" class="st2" d="M61.1,34c0.5-4-0.5-7.9-2.8-11.1c-0.7,7.1-1.3,14.2-2,21.2C58.8,41.4,60.6,38,61.1,34z"/>
			</g>
		</g>
		<g id="XMLID_2471_">
			<g id="XMLID_28_">
				<path id="XMLID_30_" class="st0" d="M54.4,34.2c-0.1,1.1-0.9,1.9-1.9,1.9s-1.8-0.8-1.9-1.9c-0.1-1.1,0.7-2.1,1.9-2.1
					C53.6,32.2,54.5,33.2,54.4,34.2z"/>
				<path id="XMLID_29_" class="st3" d="M54.4,33.7c-0.1,0.9-0.9,1.6-1.9,1.6c-1,0-1.8-0.7-1.9-1.6c-0.1-0.9,0.8-1.8,1.9-1.8
					C53.6,32,54.5,32.8,54.4,33.7z"/>
			</g>
		</g>
		<g id="XMLID_2469_">
			<path id="XMLID_76_" class="st4" d="M35.5,12.1l2.2-11.7L42,0l0,10.9c0,0-2.3,0.2-3.1,0.3C37.8,11.4,35.5,12.1,35.5,12.1z"/>
		</g>
		<g id="XMLID_2468_">
			<path id="XMLID_75_" class="st2" d="M35.5,12.1l1.8-11.6L33,2.2l-4.6,13.8c0,0,2.6-1.8,3.5-2.3C32.7,13.3,35.5,12.1,35.5,12.1z"
				/>
		</g>
		<g id="XMLID_2467_">
			<path id="XMLID_74_" class="st4" d="M33,2.2l-4.6,13.8c0,0-2.5,2.1-4.5,5.3c-1.6,2.4-2.7,7.7-2.7,7.7s0.4-7.8,2.5-13.2
				C25.3,11.4,28.8,4.5,33,2.2z"/>
		</g>
		<g id="XMLID_2466_">
			<path id="XMLID_73_" class="st2" d="M48.8,12.1L46.5,0.2L42,0l0,10.9c0,0,2.4,0.2,3.2,0.3C46.4,11.4,48.8,12.1,48.8,12.1z"/>
		</g>
		<g id="XMLID_2465_">
			<path id="XMLID_72_" class="st4" d="M48.8,12.1L46.5,0.2l4.9,1.7l4.8,14.2c0,0-2.7-1.8-3.6-2.3C51.7,13.3,48.8,12.1,48.8,12.1z"
				/>
		</g>
		<g id="XMLID_2464_">
			<path id="XMLID_71_" class="st2" d="M51.5,1.9l4.8,14.1c0,0,2.6,2.1,4.8,5.3c1.6,2.4,2.9,7.4,2.9,7.4s-0.6-8.4-2.7-13.8
				C59.4,10.5,55.8,4.2,51.5,1.9z"/>
		</g>
		<g id="XMLID_2463_">
			<polygon id="XMLID_70_" points="34.6,12.5 37.3,0.5 37.7,0.4 35.7,12 			"/>
		</g>
		<g id="XMLID_2462_">
			<polygon id="XMLID_69_" points="41.9,10.9 42,0 42.6,0 43.2,11 			"/>
		</g>
		<g id="XMLID_2461_">
			<polygon id="XMLID_68_" points="48.8,12.1 46.5,0.2 47.3,0.4 50.5,12.8 			"/>
		</g>
		<g id="XMLID_2460_">
			<polygon id="XMLID_67_" points="56.2,16.1 51.4,1.9 52.1,2.3 58.2,18 			"/>
		</g>
		<g id="XMLID_2479_">
			<g id="XMLID_2503_">
				<path id="XMLID_66_" d="M28.6,15.9c1.7-5.5,2.5-9,5.2-14c-0.5,0.2-0.3,0-0.7,0.2c-2.6,4.5-4.8,10.3-6.1,15.3
					C27.5,16.8,27.9,16.5,28.6,15.9z"/>
			</g>
		</g>
		<g id="XMLID_2424_">
			<g id="XMLID_2456_">
				<path id="XMLID_65_" class="st5" d="M22.7,19.4c1.1-8.6,9.6-14.2,19.9-14.2s18.7,5.6,19.9,14.2l0,0C61.4,8.9,50.9,2.7,42.6,2.7
					C33.2,2.7,24,8.9,22.7,19.4L22.7,19.4z"/>
			</g>
			<g id="XMLID_2455_">
				<path id="XMLID_27_" class="st6" d="M42.6,4.5c-8.3,0-15.5,3.7-18.5,9.7c-0.7,1.6-1.2,3.3-1.4,5.2c1.1-8.6,9.6-14.2,19.9-14.2
					c10.3,0,18.7,5.6,19.9,14.2c-0.2-1.9-0.7-3.7-1.4-5.3C58,8.2,50.9,4.5,42.6,4.5z"/>
			</g>
		</g>
	</g>
</g>
</svg>
