<?xml version="1.0" encoding="utf-8"?>
<!-- Generator: Adobe Illustrator 19.0.0, SVG Export Plug-In . SVG Version: 6.00 Build 0)  -->
<svg version="1.1" id="Capa_1" xmlns="http://www.w3.org/2000/svg" xmlns:xlink="http://www.w3.org/1999/xlink" x="0px" y="0px"
	 viewBox="0 0 47.2 47.2" style="enable-background:new 0 0 47.2 47.2;" xml:space="preserve">
<style type="text/css">
	.st0{fill:#A3BD31;}
	.st1{fill:#819D33;}
	.st2{fill:#FFFFFF;}
</style>
<g id="XMLID_14_">
	<g id="XMLID_673_">
		<circle id="XMLID_675_" class="st0" cx="23.6" cy="23.6" r="23.6"/>
	</g>
	<path id="XMLID_668_" class="st1" d="M47.1,25.9L27.3,11.4l-4.6-1.3l-11.3,1.4l-0.9,1.6l-0.5-0.3L9,19.2l9.2,6.8L9,27.5l8.5,6.2
		L11,33.2l1.1,3L27,47C37.7,45.5,46.1,36.7,47.1,25.9z"/>
	<g id="XMLID_661_">
		<path id="XMLID_690_" class="st2" d="M29.6,19.2c-0.2-1.9-0.6-3.9-1.1-6.3c0,0,0,0,0,0c0,0,0,0.1,0,0.1c0,1.4-4.1,2.6-9.2,2.6
			c-5.1,0-9.2-1.2-9.2-2.6c0,0,0-0.1,0-0.1c0,0,0,0,0,0c-0.5,2.4-0.8,4.4-1.1,6.3c2.2,1.2,6,2.3,10.3,2.3
			C23.6,21.5,27.4,20.4,29.6,19.2z"/>
		<path id="XMLID_691_" class="st2" d="M19.4,11c4.4,0,8,1,8.8,2.2c0.1-0.2,0.1-0.3,0.1-0.5c0-1.4-4-3-8.9-3s-8.9,1.6-8.9,3
			c0,0.2,0.1,0.3,0.1,0.5C11.3,12,15,11,19.4,11z"/>
		<ellipse id="XMLID_692_" class="st2" cx="14.5" cy="13.3" rx="1.3" ry="0.4"/>
		<path id="XMLID_664_" class="st2" d="M38.1,22.6c0,0-0.1,0-0.1,0.1c-1.3,0.9-2.8,1.5-4.3,1.9c-1.4,0.4-2.7,0.8-4.1,1.2
			c-0.3,0.1-0.7,0.2-1,0.3c0,0,0,0,0,0c0,0,0,0,0,0c-0.6,0.2-1.2,0.5-1.8,0.8c0,0,0,0,0,0c0,0,0,0,0,0c-0.1,0.1-0.3,0.1-0.4,0.2
			c0,0-0.1,0.1-0.1,0.1c0,0,0,0,0,0c0,0,0,0,0,0c-1,0.6-1.8,1.3-2.5,2.2c-0.1,0.2-0.3,0.3-0.4,0.5c0,0,0,0,0,0l0,0
			c-0.3,0.4-0.5,0.8-0.7,1.2c-0.7,1.4-1.2,2.9-1.2,4.5c0,0.2,0.2,0.4,0.4,0.3c0.1,0,0.1-0.1,0.2-0.1c1.4-1.7,2.9-3.4,4.9-4.6
			c0.3-0.2,0.7-0.4,1-0.6c0,0,0,0,0,0c0,0,0,0,0,0c0.4-0.2,0.8-0.5,1.2-0.7c0,0,0,0,0,0c0,0,0,0,0,0c0,0,0.1,0,0.1-0.1
			c0.8-0.4,1.6-0.8,2.4-1.1c-0.8,0.5-1.6,1-2.3,1.5c0,0,0,0,0,0c0,0,0,0,0,0c0,0-0.1,0.1-0.1,0.1c-0.2,0.1-0.4,0.3-0.6,0.4
			c0,0,0,0,0,0c0,0,0,0,0,0c-0.5,0.4-1,0.7-1.5,1.1c-1.1,0.9-2.1,1.8-2.9,3c-0.6,0.8-1.2,1.7-1.6,2.7c-0.6,1.3-1,2.8-1.1,4.3
			c0,0.3,0.2,0.5,0.4,0.5c0,0,0.1,0,0.1,0c0.2,0,0.4-0.2,0.4-0.4c0-1.2,0.3-2.4,0.8-3.6c0,0,0.1,0,0.1-0.1c1.8-1,4.1-1,6-1.8
			c2.5-1,4.6-3,6-5.3c1.5-2.5,1.9-5.4,3.2-8C38.6,22.8,38.3,22.6,38.1,22.6z"/>
		<path id="XMLID_680_" class="st2" d="M22.7,29.2c0.8-0.9,1.7-1.8,2.7-2.4c0,0,0,0,0,0c0,0,0,0,0,0c0.1,0,0.1-0.1,0.2-0.1
			c0.1-0.1,0.3-0.2,0.4-0.2c0,0,0,0,0,0c0,0,0,0,0,0c0.6-0.3,1.3-0.6,2-0.9c0,0,0,0,0,0c0,0,0,0,0,0c0.4-0.1,0.7-0.2,1.1-0.4
			c0.2-0.1,0.5-0.1,0.7-0.2c0.1-1.5,0-2.9-0.1-4.4c-2.2,1.2-6,2.4-10.4,2.4c-4.4,0-8.2-1.2-10.4-2.4C8.7,23,8.7,25.1,9,27.5
			c2.2,1.2,6,2.4,10.3,2.4c1,0,2-0.1,2.9-0.2c0,0,0,0,0,0C22.4,29.5,22.5,29.3,22.7,29.2z"/>
		<path id="XMLID_682_" class="st2" d="M21.3,31.3c-0.7,0.1-1.3,0.1-2,0.1c-4.2,0-7.9-1.1-10.1-2.2c0.2,1.6,0.9,5.3,0.9,5.3
			c0.3,1.3,4.3,3.3,9.2,3.3c0.2,0,0.5,0,0.7,0c0-0.8,0.1-1.7,0.1-1.8C20.2,34.3,20.6,32.7,21.3,31.3z"/>
	</g>
</g>
</svg>
