<?xml version="1.0" encoding="utf-8"?>
<!-- Generator: Adobe Illustrator 19.0.0, SVG Export Plug-In . SVG Version: 6.00 Build 0)  -->
<svg version="1.1" id="Capa_1" xmlns="http://www.w3.org/2000/svg" xmlns:xlink="http://www.w3.org/1999/xlink" x="0px" y="0px"
	 viewBox="0 0 58.1 97.7" style="enable-background:new 0 0 58.1 97.7;" xml:space="preserve">
<style type="text/css">
	.st0{fill:#BEC0C7;}
	.st1{fill:#DEDEE1;}
	.st2{fill:#87868A;}
	.st3{fill:#999CA5;}
	.st4{fill:#898C90;}
	.st5{fill:#850E5B;}
	.st6{fill:#BD5B99;}
	.st7{fill:#A7A7AB;}
	.st8{fill:#FFFFFF;}
	.st9{fill:#D7DAE0;}
	.st10{fill:#009BDB;}
</style>
<g id="XMLID_1187_">
	<g id="XMLID_1208_">
		<g id="XMLID_1219_">
			<g id="XMLID_1249_">
				<g id="XMLID_1253_">
					<g id="XMLID_1276_">
						<g id="XMLID_1289_">
							<path id="XMLID_196_" class="st0" d="M58.1,84c0,5.6-13,10.9-29,10.9S0,89.6,0,84s13-10.2,29-10.2S58.1,78.3,58.1,84z"/>
						</g>
						<g id="XMLID_1288_">
							<path id="XMLID_195_" class="st1" d="M0,6.6v78h0c0,3.7,13,6.6,29,6.6s29-3,29-6.6h0v-78H0z"/>
						</g>
						<g id="XMLID_1287_">
							<ellipse id="XMLID_194_" class="st2" cx="29" cy="6.8" rx="29" ry="6.6"/>
						</g>
						<g id="XMLID_1286_">
							<path id="XMLID_193_" class="st2" d="M1.6,9C5.5,6.4,16.3,4.4,29,4.4S52.6,6.4,56.5,9c1-0.7,1.6-1.4,1.6-2.2
								c0-3.7-13-6.8-29-6.8S0,3.1,0,6.8C0,7.6,0.6,8.3,1.6,9z"/>
						</g>
						<g id="XMLID_1277_">
							<g id="XMLID_1282_">
								<g id="XMLID_1284_">
									<g id="XMLID_1285_">
										<path id="XMLID_192_" class="st3" d="M4.9,97.7h6.7l1.1-5.9c-2.5-0.6-4.8-1.4-6.7-2.3L4.9,97.7z"/>
									</g>
								</g>
								<g id="XMLID_1283_">
									<polygon id="XMLID_191_" class="st4" points="11.6,97.7 13,96.3 14.1,92.1 12.7,91.8 									"/>
								</g>
							</g>
							<g id="XMLID_1278_">
								<g id="XMLID_1280_">
									<g id="XMLID_1281_">
										<path id="XMLID_190_" class="st3" d="M53.2,97.7h-6.7l-1.1-5.9c2.5-0.6,4.8-1.4,6.7-2.3L53.2,97.7z"/>
									</g>
								</g>
								<g id="XMLID_1279_">
									<polygon id="XMLID_189_" class="st4" points="46.5,97.7 45.1,96.3 44,92.1 45.4,91.8 									"/>
								</g>
							</g>
						</g>
					</g>
					<g id="XMLID_1275_">
						<path id="XMLID_188_" class="st5" d="M3.8,10c5,2,14.4,3.4,25.3,3.4c10.8,0,20.3-1.4,25.3-3.4c-5-2.1-14.4-3.4-25.3-3.4
							C18.2,6.6,8.8,8,3.8,10z"/>
					</g>
					<g id="XMLID_1254_">
						<g id="XMLID_1271_">
							<g id="XMLID_1274_">
								<path id="XMLID_187_" class="st6" d="M10.3,7.5C9.4,7.5,8.8,8.2,8.7,9c0.5,0.1,1.1,0.2,1.8,0.2c0.4,0,0.9,0,1.3-0.1
									c0,0,0,0,0-0.1C11.8,8.2,11.1,7.5,10.3,7.5z"/>
							</g>
							<g id="XMLID_1273_">
								<path id="XMLID_186_" class="st6" d="M13.7,8.8c-0.5,0-0.9,0.4-0.9,0.9c0.3,0.1,0.7,0.1,1,0.1c0.3,0,0.5,0,0.7-0.1
									c0,0,0,0,0,0C14.6,9.2,14.2,8.8,13.7,8.8z"/>
							</g>
							<g id="XMLID_1272_">
								<path id="XMLID_185_" class="st6" d="M11.3,9.6c-0.6,0-1.1,0.5-1.1,1.1c0.4,0.1,0.8,0.1,1.3,0.1c0.3,0,0.6,0,0.9-0.1
									c0,0,0,0,0,0C12.4,10.1,11.9,9.6,11.3,9.6z"/>
							</g>
						</g>
						<g id="XMLID_1267_">
							<g id="XMLID_1270_">
								<path id="XMLID_184_" class="st6" d="M23.6,5.8c1.1,0,2,0.9,2,2C24.9,7.9,24.2,8,23.3,8c-0.6,0-1.2,0-1.7-0.1c0,0,0,0,0-0.1
									C21.6,6.7,22.5,5.8,23.6,5.8z"/>
							</g>
							<g id="XMLID_1269_">
								<path id="XMLID_183_" class="st6" d="M19.1,7.5c0.6,0,1.2,0.5,1.2,1.2c-0.4,0.1-0.9,0.1-1.4,0.1c-0.3,0-0.7,0-1-0.1
									c0,0,0,0,0,0C17.9,8,18.5,7.5,19.1,7.5z"/>
							</g>
							<g id="XMLID_1268_">
								<path id="XMLID_182_" class="st6" d="M22.2,8.6c0.8,0,1.4,0.6,1.4,1.4c-0.5,0.1-1.1,0.2-1.6,0.2c-0.4,0-0.8,0-1.2-0.1
									c0,0,0,0,0,0C20.8,9.2,21.5,8.6,22.2,8.6z"/>
							</g>
						</g>
						<g id="XMLID_1263_">
							<g id="XMLID_1266_">
								<path id="XMLID_181_" class="st6" d="M34.4,7.2c-0.8,0-1.5,0.7-1.5,1.5c0.5,0.1,1.1,0.2,1.8,0.2c0.4,0,0.9,0,1.3-0.1
									c0,0,0,0,0-0.1C35.9,7.9,35.2,7.2,34.4,7.2z"/>
							</g>
							<g id="XMLID_1265_">
								<path id="XMLID_180_" class="st6" d="M37.8,8.5c-0.5,0-0.9,0.4-0.9,0.9c0.3,0.1,0.7,0.1,1,0.1c0.3,0,0.5,0,0.7-0.1
									c0,0,0,0,0,0C38.7,9,38.3,8.5,37.8,8.5z"/>
							</g>
							<g id="XMLID_1264_">
								<path id="XMLID_179_" class="st6" d="M35.4,9.4c-0.6,0-1.1,0.5-1.1,1.1c0.4,0.1,0.8,0.1,1.3,0.1c0.3,0,0.6,0,0.9-0.1
									c0,0,0,0,0,0C36.5,9.9,36,9.4,35.4,9.4z"/>
							</g>
						</g>
						<g id="XMLID_1259_">
							<g id="XMLID_1262_">
								<path id="XMLID_178_" class="st6" d="M27.5,10.3c-0.7,0-1.2,0.5-1.2,1.2c0.4,0.1,0.9,0.1,1.4,0.1c0.4,0,0.7,0,1-0.1
									c0,0,0,0,0,0C28.7,10.9,28.2,10.3,27.5,10.3z"/>
							</g>
							<g id="XMLID_1261_">
								<path id="XMLID_177_" class="st6" d="M30.2,11.4c-0.4,0-0.7,0.3-0.7,0.7c0.2,0.1,0.5,0.1,0.8,0.1c0.2,0,0.4,0,0.6,0
									c0,0,0,0,0,0C31,11.7,30.6,11.4,30.2,11.4z"/>
							</g>
							<g id="XMLID_1260_">
								<path id="XMLID_176_" class="st6" d="M28.3,12c-0.5,0-0.9,0.4-0.9,0.9c0.3,0.1,0.6,0.1,1,0.1c0.3,0,0.5,0,0.7-0.1
									c0,0,0,0,0,0C29.2,12.4,28.8,12,28.3,12z"/>
							</g>
						</g>
						<g id="XMLID_1255_">
							<g id="XMLID_1258_">
								<path id="XMLID_175_" class="st6" d="M43.9,6.2c-1,0-1.9,0.9-1.9,1.9c0.7,0.1,1.4,0.2,2.2,0.2c0.6,0,1.1,0,1.6-0.1
									c0,0,0,0,0-0.1C45.8,7,45,6.2,43.9,6.2z"/>
							</g>
							<g id="XMLID_1257_">
								<path id="XMLID_174_" class="st6" d="M48.2,7.8c-0.6,0-1.1,0.5-1.1,1.1C47.5,9,47.9,9,48.4,9C48.7,9,49,9,49.3,9
									c0,0,0,0,0,0C49.3,8.3,48.8,7.8,48.2,7.8z"/>
							</g>
							<g id="XMLID_1256_">
								<path id="XMLID_173_" class="st6" d="M45.2,8.8c-0.7,0-1.3,0.6-1.4,1.4c0.5,0.1,1,0.2,1.6,0.2c0.4,0,0.8,0,1.1-0.1
									c0,0,0,0,0,0C46.6,9.4,46,8.8,45.2,8.8z"/>
							</g>
						</g>
					</g>
				</g>
				<g id="XMLID_1250_">
					<path id="XMLID_713_" class="st7" d="M58,6.6c0-0.5-0.3-1-0.8-1.4C54.2,2.2,42.8,0,29,0C13.2,0,0.4,2.9,0,6.6h0v0.1
						c0,0,0,0.1,0,0.1c0,0,0,0.1,0,0.1c0.1,1,1.2,1.9,1.2,1.9c4.2,2.9,15.1,4.7,27.8,4.7C50.4,13.5,56.5,9,56.5,9
						c0.8-0.6,1.4-1.2,1.5-1.8c0-0.1,0.1-0.3,0.1-0.4C58.1,6.7,58.1,6.7,58,6.6z M56.8,7.3c-0.2,0.6-1.5,1.6-1.5,1.6
						c-3.8,2.3-14.2,4-26.3,4c-12.2,0-22.4-1.7-26.2-4c0,0-1.5-1.2-1.6-1.8c0,0,0-0.1,0-0.1c0,0,0,0,0-0.1V6.8h0
						C1.6,3.5,13.9,0.7,29,0.7c13.2,0,24.2,2.2,27.1,4.8c0.5,0.4,0.7,0.8,0.7,1.2c0,0,0,0.1,0,0.1C56.9,7,56.9,7.1,56.8,7.3z"/>
				</g>
			</g>
		</g>
		<g id="XMLID_1214_">
			<g id="XMLID_1217_">
				<g id="XMLID_1218_">
					<path id="XMLID_172_" class="st7" d="M28.9,22.1C13.1,22.1,0,18.9,0,15l0,0c0,3.1,12.5,6.6,28.9,6.6s29.2-3.5,29.2-6.6l0,0
						C58.1,18.9,44.7,22.1,28.9,22.1z"/>
				</g>
			</g>
			<g id="XMLID_1215_">
				<g id="XMLID_1216_">
					<path id="XMLID_171_" class="st7" d="M28.9,28.7C13.1,28.7,0,25.5,0,21.6l0,0c0,3.1,12.5,6.6,28.9,6.6s29.2-3.5,29.2-6.6l0,0
						C58.1,25.5,44.7,28.7,28.9,28.7z"/>
				</g>
			</g>
		</g>
		<g id="XMLID_1209_">
			<g id="XMLID_1212_">
				<g id="XMLID_1213_">
					<path id="XMLID_170_" class="st7" d="M28.9,78.2C13.1,78.2,0,74.9,0,71.1l0,0c0,3.1,12.5,6.6,28.9,6.6s29.2-3.5,29.2-6.6l0,0
						C58.1,74.9,44.7,78.2,28.9,78.2z"/>
				</g>
			</g>
			<g id="XMLID_1210_">
				<g id="XMLID_1211_">
					<path id="XMLID_169_" class="st7" d="M28.9,84.8C13.1,84.8,0,81.5,0,77.6l0,0c0,3.1,12.5,6.6,28.9,6.6s29.2-3.5,29.2-6.6l0,0
						C58.1,81.5,44.7,84.8,28.9,84.8z"/>
				</g>
			</g>
		</g>
	</g>
	<g id="XMLID_1194_">
		<g id="XMLID_1195_">
			<g id="XMLID_1207_">
				<path id="XMLID_168_" class="st8" d="M32.6,58.9V36.2c0-2.4-2-4.4-4.4-4.4s-4.4,2-4.4,4.4v22.7c-2.4,1.5-3.9,4.1-3.9,7.1
					c0,4.6,3.7,8.3,8.3,8.3s8.3-3.7,8.3-8.3C36.5,63,34.9,60.3,32.6,58.9z"/>
			</g>
			<g id="XMLID_1205_">
				<g id="XMLID_1206_">
					<path id="XMLID_167_" class="st9" d="M28.3,35.1c2.4,0,4.4,2,4.4,4.4v-4c0-2.4-2-4.4-4.4-4.4s-4.4,2-4.4,4.4v4
						C23.9,37.1,25.9,35.1,28.3,35.1z"/>
				</g>
			</g>
			<g id="XMLID_1204_">
				<path id="XMLID_166_" class="st10" d="M31,61.5l-1.4-0.9v-4h-2.7v4l-1.4,0.9c-1.6,1-2.5,2.7-2.5,4.5c0,2.9,2.4,5.3,5.3,5.3
					s5.3-2.4,5.3-5.3C33.5,64.1,32.6,62.4,31,61.5z"/>
			</g>
			<g id="XMLID_1203_">
				<path id="XMLID_64_" class="st4" d="M31.9,39.9h-2.2c-0.3,0-0.5-0.2-0.5-0.5c0-0.3,0.2-0.5,0.5-0.5h2.2c0.3,0,0.5,0.2,0.5,0.5
					C32.4,39.7,32.2,39.9,31.9,39.9z"/>
			</g>
			<g id="XMLID_1202_">
				<path id="XMLID_63_" class="st4" d="M31.9,43.4h-2.2c-0.3,0-0.5-0.2-0.5-0.5c0-0.3,0.2-0.5,0.5-0.5h2.2c0.3,0,0.5,0.2,0.5,0.5
					C32.4,43.1,32.2,43.4,31.9,43.4z"/>
			</g>
			<g id="XMLID_1201_">
				<path id="XMLID_62_" class="st4" d="M31.9,46.9h-2.2c-0.3,0-0.5-0.2-0.5-0.5c0-0.3,0.2-0.5,0.5-0.5h2.2c0.3,0,0.5,0.2,0.5,0.5
					C32.4,46.6,32.2,46.9,31.9,46.9z"/>
			</g>
			<g id="XMLID_1200_">
				<path id="XMLID_61_" class="st4" d="M31.9,43.3h-2.2c-0.3,0-0.5-0.2-0.5-0.5c0-0.3,0.2-0.5,0.5-0.5h2.2c0.3,0,0.5,0.2,0.5,0.5
					C32.4,43.1,32.2,43.3,31.9,43.3z"/>
			</g>
			<g id="XMLID_1199_">
				<path id="XMLID_60_" class="st4" d="M31.9,46.8h-2.2c-0.3,0-0.5-0.2-0.5-0.5c0-0.3,0.2-0.5,0.5-0.5h2.2c0.3,0,0.5,0.2,0.5,0.5
					C32.4,46.6,32.2,46.8,31.9,46.8z"/>
			</g>
			<g id="XMLID_1198_">
				<path id="XMLID_59_" class="st4" d="M31.9,50.3h-2.2c-0.3,0-0.5-0.2-0.5-0.5c0-0.3,0.2-0.5,0.5-0.5h2.2c0.3,0,0.5,0.2,0.5,0.5
					C32.4,50,32.2,50.3,31.9,50.3z"/>
			</g>
			<g id="XMLID_1197_">
				<path id="XMLID_58_" class="st4" d="M31.9,53.8h-2.2c-0.3,0-0.5-0.2-0.5-0.5c0-0.3,0.2-0.5,0.5-0.5h2.2c0.3,0,0.5,0.2,0.5,0.5
					C32.4,53.5,32.2,53.8,31.9,53.8z"/>
			</g>
			<g id="XMLID_1196_">
				<path id="XMLID_55_" class="st3" d="M28.2,75.6c-5.3,0-9.7-4.3-9.7-9.7c0-3.1,1.5-6,3.9-7.8v-22c0-3.2,2.6-5.7,5.7-5.7
					s5.7,2.6,5.7,5.7v22c2.5,1.8,3.9,4.7,3.9,7.8C37.9,71.3,33.5,75.6,28.2,75.6z M28.2,33.1c-1.7,0-3,1.4-3,3v23.4L24.5,60
					c-2.1,1.3-3.3,3.5-3.3,5.9c0,3.9,3.1,7,7,7s7-3.1,7-7c0-2.4-1.2-4.6-3.3-5.9l-0.6-0.4V36.2C31.3,34.5,29.9,33.1,28.2,33.1z"/>
			</g>
		</g>
	</g>
</g>
</svg>
