<?xml version="1.0" encoding="utf-8"?>
<!-- Generator: Adobe Illustrator 19.0.0, SVG Export Plug-In . SVG Version: 6.00 Build 0)  -->
<svg version="1.1" id="Capa_1" xmlns="http://www.w3.org/2000/svg" xmlns:xlink="http://www.w3.org/1999/xlink" x="0px" y="0px"
	 viewBox="0 0 58.1 97.7" style="enable-background:new 0 0 58.1 97.7;" xml:space="preserve">
<style type="text/css">
	.st0{fill:#BEC0C7;}
	.st1{fill:#DEDEE1;}
	.st2{fill:#87868A;}
	.st3{fill:#999CA5;}
	.st4{fill:#898C90;}
	.st5{fill:#850E5B;}
	.st6{fill:#BD5B99;}
	.st7{fill:#A7A7AB;}
	.st8{fill:#FFFFFF;}
	.st9{fill:#D7DAE0;}
</style>
<g id="XMLID_308_">
	<g id="XMLID_309_">
		<g id="XMLID_1232_">
			<g id="XMLID_1307_">
				<g id="XMLID_1391_">
					<g id="XMLID_2261_">
						<path id="XMLID_209_" class="st0" d="M58.1,84c0,5.6-13,10.9-29,10.9S0,89.6,0,84s13-10.2,29-10.2S58.1,78.3,58.1,84z"/>
					</g>
					<g id="XMLID_2260_">
						<path id="XMLID_208_" class="st1" d="M0,6.6v78h0c0,3.7,13,6.6,29,6.6s29-3,29-6.6h0v-78H0z"/>
					</g>
					<g id="XMLID_2259_">
						<ellipse id="XMLID_207_" class="st2" cx="29" cy="6.8" rx="29" ry="6.6"/>
					</g>
					<g id="XMLID_2258_">
						<path id="XMLID_206_" class="st2" d="M1.6,9C5.5,6.4,16.3,4.4,29,4.4S52.6,6.4,56.5,9c1-0.7,1.6-1.4,1.6-2.2
							c0-3.7-13-6.8-29-6.8S0,3.1,0,6.8C0,7.6,0.6,8.3,1.6,9z"/>
					</g>
					<g id="XMLID_1392_">
						<g id="XMLID_1405_">
							<g id="XMLID_1409_">
								<g id="XMLID_2000_">
									<path id="XMLID_205_" class="st3" d="M4.9,97.7h6.7l1.1-5.9c-2.5-0.6-4.8-1.4-6.7-2.3L4.9,97.7z"/>
								</g>
							</g>
							<g id="XMLID_1407_">
								<polygon id="XMLID_204_" class="st4" points="11.6,97.7 13,96.3 14.1,92.1 12.7,91.8 								"/>
							</g>
						</g>
						<g id="XMLID_1395_">
							<g id="XMLID_1400_">
								<g id="XMLID_1403_">
									<path id="XMLID_203_" class="st3" d="M53.2,97.7h-6.7l-1.1-5.9c2.5-0.6,4.8-1.4,6.7-2.3L53.2,97.7z"/>
								</g>
							</g>
							<g id="XMLID_1396_">
								<polygon id="XMLID_202_" class="st4" points="46.5,97.7 45.1,96.3 44,92.1 45.4,91.8 								"/>
							</g>
						</g>
					</g>
				</g>
				<g id="XMLID_1329_">
					<path id="XMLID_201_" class="st5" d="M3.8,10c5,2,14.4,3.4,25.3,3.4c10.8,0,20.3-1.4,25.3-3.4c-5-2.1-14.4-3.4-25.3-3.4
						C18.2,6.6,8.8,8,3.8,10z"/>
				</g>
				<g id="XMLID_1308_">
					<g id="XMLID_1325_">
						<g id="XMLID_1328_">
							<path id="XMLID_200_" class="st6" d="M10.3,7.5C9.4,7.5,8.8,8.2,8.7,9c0.5,0.1,1.1,0.2,1.8,0.2c0.4,0,0.9,0,1.3-0.1
								c0,0,0,0,0-0.1C11.8,8.2,11.1,7.5,10.3,7.5z"/>
						</g>
						<g id="XMLID_1327_">
							<path id="XMLID_199_" class="st6" d="M13.7,8.8c-0.5,0-0.9,0.4-0.9,0.9c0.3,0.1,0.7,0.1,1,0.1c0.3,0,0.5,0,0.7-0.1
								c0,0,0,0,0,0C14.6,9.2,14.2,8.8,13.7,8.8z"/>
						</g>
						<g id="XMLID_1326_">
							<path id="XMLID_198_" class="st6" d="M11.3,9.6c-0.6,0-1.1,0.5-1.1,1.1c0.4,0.1,0.8,0.1,1.3,0.1c0.3,0,0.6,0,0.9-0.1
								c0,0,0,0,0,0C12.4,10.1,11.9,9.6,11.3,9.6z"/>
						</g>
					</g>
					<g id="XMLID_1321_">
						<g id="XMLID_1324_">
							<path id="XMLID_197_" class="st6" d="M23.6,5.8c1.1,0,2,0.9,2,2C24.9,7.9,24.2,8,23.3,8c-0.6,0-1.2,0-1.7-0.1c0,0,0,0,0-0.1
								C21.6,6.7,22.5,5.8,23.6,5.8z"/>
						</g>
						<g id="XMLID_1323_">
							<path id="XMLID_165_" class="st6" d="M19.1,7.5c0.6,0,1.2,0.5,1.2,1.2c-0.4,0.1-0.9,0.1-1.4,0.1c-0.3,0-0.7,0-1-0.1
								c0,0,0,0,0,0C17.9,8,18.5,7.5,19.1,7.5z"/>
						</g>
						<g id="XMLID_1322_">
							<path id="XMLID_164_" class="st6" d="M22.2,8.6c0.8,0,1.4,0.6,1.4,1.4c-0.5,0.1-1.1,0.2-1.6,0.2c-0.4,0-0.8,0-1.2-0.1
								c0,0,0,0,0,0C20.8,9.2,21.5,8.6,22.2,8.6z"/>
						</g>
					</g>
					<g id="XMLID_1317_">
						<g id="XMLID_1320_">
							<path id="XMLID_163_" class="st6" d="M34.4,7.2c-0.8,0-1.5,0.7-1.5,1.5c0.5,0.1,1.1,0.2,1.8,0.2c0.4,0,0.9,0,1.3-0.1
								c0,0,0,0,0-0.1C35.9,7.9,35.2,7.2,34.4,7.2z"/>
						</g>
						<g id="XMLID_1319_">
							<path id="XMLID_162_" class="st6" d="M37.8,8.5c-0.5,0-0.9,0.4-0.9,0.9c0.3,0.1,0.7,0.1,1,0.1c0.3,0,0.5,0,0.7-0.1
								c0,0,0,0,0,0C38.7,9,38.3,8.5,37.8,8.5z"/>
						</g>
						<g id="XMLID_1318_">
							<path id="XMLID_161_" class="st6" d="M35.4,9.4c-0.6,0-1.1,0.5-1.1,1.1c0.4,0.1,0.8,0.1,1.3,0.1c0.3,0,0.6,0,0.9-0.1
								c0,0,0,0,0,0C36.5,9.9,36,9.4,35.4,9.4z"/>
						</g>
					</g>
					<g id="XMLID_1313_">
						<g id="XMLID_1316_">
							<path id="XMLID_160_" class="st6" d="M27.5,10.3c-0.7,0-1.2,0.5-1.2,1.2c0.4,0.1,0.9,0.1,1.4,0.1c0.4,0,0.7,0,1-0.1
								c0,0,0,0,0,0C28.7,10.9,28.2,10.3,27.5,10.3z"/>
						</g>
						<g id="XMLID_1315_">
							<path id="XMLID_159_" class="st6" d="M30.2,11.4c-0.4,0-0.7,0.3-0.7,0.7c0.2,0.1,0.5,0.1,0.8,0.1c0.2,0,0.4,0,0.6,0
								c0,0,0,0,0,0C31,11.7,30.6,11.4,30.2,11.4z"/>
						</g>
						<g id="XMLID_1314_">
							<path id="XMLID_158_" class="st6" d="M28.3,12c-0.5,0-0.9,0.4-0.9,0.9c0.3,0.1,0.6,0.1,1,0.1c0.3,0,0.5,0,0.7-0.1
								c0,0,0,0,0,0C29.2,12.4,28.8,12,28.3,12z"/>
						</g>
					</g>
					<g id="XMLID_1309_">
						<g id="XMLID_1312_">
							<path id="XMLID_157_" class="st6" d="M43.9,6.2c-1,0-1.9,0.9-1.9,1.9c0.7,0.1,1.4,0.2,2.2,0.2c0.6,0,1.1,0,1.6-0.1
								c0,0,0,0,0-0.1C45.8,7,45,6.2,43.9,6.2z"/>
						</g>
						<g id="XMLID_1311_">
							<path id="XMLID_156_" class="st6" d="M48.2,7.8c-0.6,0-1.1,0.5-1.1,1.1C47.5,9,47.9,9,48.4,9C48.7,9,49,9,49.3,9c0,0,0,0,0,0
								C49.3,8.3,48.8,7.8,48.2,7.8z"/>
						</g>
						<g id="XMLID_1310_">
							<path id="XMLID_155_" class="st6" d="M45.2,8.8c-0.7,0-1.3,0.6-1.4,1.4c0.5,0.1,1,0.2,1.6,0.2c0.4,0,0.8,0,1.1-0.1
								c0,0,0,0,0,0C46.6,9.4,46,8.8,45.2,8.8z"/>
						</g>
					</g>
				</g>
			</g>
			<g id="XMLID_1290_">
				<path id="XMLID_603_" class="st7" d="M58,6.6c0-0.5-0.3-1-0.8-1.4C54.2,2.2,42.8,0,29,0C13.2,0,0.4,2.9,0,6.6h0v0.1
					c0,0,0,0.1,0,0.1c0,0,0,0.1,0,0.1c0.1,1,1.2,1.9,1.2,1.9c4.2,2.9,15.1,4.7,27.8,4.7C50.4,13.5,56.5,9,56.5,9
					c0.8-0.6,1.4-1.2,1.5-1.8c0-0.1,0.1-0.3,0.1-0.4C58.1,6.7,58.1,6.7,58,6.6z M56.8,7.3c-0.2,0.6-1.5,1.6-1.5,1.6
					c-3.8,2.3-14.2,4-26.3,4c-12.2,0-22.4-1.7-26.2-4c0,0-1.5-1.2-1.6-1.8c0,0,0-0.1,0-0.1c0,0,0,0,0-0.1V6.8h0
					C1.6,3.5,13.9,0.7,29,0.7c13.2,0,24.2,2.2,27.1,4.8c0.5,0.4,0.7,0.8,0.7,1.2c0,0,0,0.1,0,0.1C56.9,7,56.9,7.1,56.8,7.3z"/>
			</g>
		</g>
		<g id="XMLID_1183_">
			<g id="XMLID_1184_">
				<g id="XMLID_1185_">
					<path id="XMLID_154_" class="st7" d="M28.9,22.1C13.1,22.1,0,18.9,0,15l0,0c0,3.1,12.5,6.6,28.9,6.6s29.2-3.5,29.2-6.6l0,0
						C58.1,18.9,44.7,22.1,28.9,22.1z"/>
				</g>
			</g>
			<g id="XMLID_1186_">
				<g id="XMLID_1188_">
					<path id="XMLID_153_" class="st7" d="M28.9,28.7C13.1,28.7,0,25.5,0,21.6l0,0c0,3.1,12.5,6.6,28.9,6.6s29.2-3.5,29.2-6.6l0,0
						C58.1,25.5,44.7,28.7,28.9,28.7z"/>
				</g>
			</g>
		</g>
		<g id="XMLID_1189_">
			<g id="XMLID_1191_">
				<g id="XMLID_1192_">
					<path id="XMLID_152_" class="st7" d="M28.9,78.2C13.1,78.2,0,74.9,0,71.1l0,0c0,3.1,12.5,6.6,28.9,6.6s29.2-3.5,29.2-6.6l0,0
						C58.1,74.9,44.7,78.2,28.9,78.2z"/>
				</g>
			</g>
			<g id="XMLID_1190_">
				<g id="XMLID_1193_">
					<path id="XMLID_151_" class="st7" d="M28.9,84.8C13.1,84.8,0,81.5,0,77.6l0,0c0,3.1,12.5,6.6,28.9,6.6s29.2-3.5,29.2-6.6l0,0
						C58.1,81.5,44.7,84.8,28.9,84.8z"/>
				</g>
			</g>
		</g>
	</g>
	<g id="XMLID_1233_">
		<g id="XMLID_1246_">
			<circle id="XMLID_150_" class="st8" cx="29" cy="52.7" r="14.5"/>
		</g>
		<g id="XMLID_1245_">
			<path id="XMLID_149_" class="st9" d="M29,41.2c6.8,0,12.5,4.9,13.2,11.1c0.1-0.5,0.1-1,0.1-1.5c0-7-6-12.6-13.3-12.6
				s-13.3,5.6-13.3,12.6c0,0.5,0,1,0.1,1.5C16.6,46.1,22.2,41.2,29,41.2z"/>
		</g>
		<g id="XMLID_1235_">
			<g id="XMLID_1244_">
				<circle id="XMLID_148_" class="st4" cx="29" cy="52.7" r="1.5"/>
			</g>
			<g id="XMLID_1236_">
				<g id="XMLID_1241_">
					<g id="XMLID_1243_">
						<path id="XMLID_147_" class="st4" d="M29,41.7c-0.4,0-0.8-0.4-0.8-0.8v-2.7c0-0.4,0.4-0.8,0.8-0.8s0.8,0.4,0.8,0.8v2.7
							C29.8,41.4,29.5,41.7,29,41.7z"/>
					</g>
					<g id="XMLID_1242_">
						<path id="XMLID_146_" class="st4" d="M29,68c-0.4,0-0.8-0.4-0.8-0.8v-2.7c0-0.4,0.4-0.8,0.8-0.8s0.8,0.4,0.8,0.8v2.7
							C29.8,67.6,29.5,68,29,68z"/>
					</g>
				</g>
				<g id="XMLID_1238_">
					<g id="XMLID_1240_">
						<path id="XMLID_145_" class="st4" d="M17.3,53.5h-2.7c-0.4,0-0.8-0.4-0.8-0.8c0-0.4,0.4-0.8,0.8-0.8h2.7
							c0.4,0,0.8,0.4,0.8,0.8C18.1,53.1,17.7,53.5,17.3,53.5z"/>
					</g>
					<g id="XMLID_1239_">
						<path id="XMLID_144_" class="st4" d="M43.5,53.5h-2.7c-0.4,0-0.8-0.4-0.8-0.8c0-0.4,0.4-0.8,0.8-0.8h2.7
							c0.4,0,0.8,0.4,0.8,0.8C44.3,53.1,44,53.5,43.5,53.5z"/>
					</g>
				</g>
				<g id="XMLID_1237_">
					<path id="XMLID_143_" class="st4" d="M29,53.5c-0.2,0-0.4-0.1-0.6-0.2l-6-6.3c-0.3-0.3-0.3-0.8,0-1.1c0.3-0.3,0.8-0.3,1.1,0
						l4.6,4.8v-2.9c0-0.4,0.4-0.8,0.8-0.8s0.8,0.4,0.8,0.8v4.9c0,0.3-0.2,0.6-0.5,0.7C29.2,53.5,29.1,53.5,29,53.5z"/>
				</g>
			</g>
		</g>
		<g id="XMLID_1234_">
			<path id="XMLID_140_" class="st3" d="M29,68.6c-8.8,0-15.9-7.1-15.9-15.9S20.3,36.8,29,36.8s15.9,7.1,15.9,15.9
				S37.8,68.6,29,68.6z M29,39.5c-7.3,0-13.2,5.9-13.2,13.2c0,7.3,5.9,13.2,13.2,13.2S42.2,60,42.2,52.7
				C42.2,45.4,36.3,39.5,29,39.5z"/>
		</g>
	</g>
</g>
</svg>
