<?xml version="1.0" encoding="utf-8"?>
<!-- Generator: Adobe Illustrator 19.0.0, SVG Export Plug-In . SVG Version: 6.00 Build 0)  -->
<svg version="1.1" id="Capa_1" xmlns="http://www.w3.org/2000/svg" xmlns:xlink="http://www.w3.org/1999/xlink" x="0px" y="0px"
	 viewBox="0 0 70.9 109.1" style="enable-background:new 0 0 70.9 109.1;" xml:space="preserve">
<style type="text/css">
	.st0{fill:#616164;}
	.st1{fill:#838186;}
	.st2{fill:#393939;}
	.st3{fill:#1D1D1D;}
	.st4{fill:#BC9E6C;}
	.st5{fill:#6E5128;}
	.st6{fill:#A38051;}
	.st7{fill:#850E5B;}
	.st8{fill:#BD5B99;}
	.st9{fill:none;}
	.st10{fill:#79797D;}
	.st11{fill:#949398;}
	.st12{fill:#7D7C80;}
</style>
<g id="XMLID_2001_">
	<g id="XMLID_2138_">
		<g id="XMLID_2255_">
			<g id="XMLID_2257_">
				<polygon id="XMLID_352_" class="st0" points="35.5,109.1 33.2,109.1 32.7,90.5 37.1,90.5 				"/>
			</g>
			<g id="XMLID_2256_">
				<polygon id="XMLID_351_" class="st1" points="32.7,90.5 31.8,91.8 33.2,109.1 				"/>
			</g>
		</g>
		<g id="XMLID_2248_">
			<g id="XMLID_2252_">
				<g id="XMLID_2254_">
					<polygon id="XMLID_350_" class="st0" points="0.5,98.8 0,97.8 10,86.2 20.4,87.7 3.8,98.8 					"/>
				</g>
				<g id="XMLID_2253_">
					<polygon id="XMLID_349_" class="st1" points="3.8,98.8 0.5,98.8 11.8,87.7 20.4,87.7 					"/>
				</g>
			</g>
			<g id="XMLID_2249_">
				<g id="XMLID_2251_">
					<polygon id="XMLID_348_" class="st0" points="70.3,98.8 70.9,97.8 60.8,86.2 50.4,87.7 67.1,98.8 					"/>
				</g>
				<g id="XMLID_2250_">
					<polygon id="XMLID_347_" class="st1" points="67.1,98.8 70.3,98.8 59,87.7 50.4,87.7 					"/>
				</g>
			</g>
		</g>
		<g id="XMLID_2139_">
			<g id="XMLID_2245_">
				<g id="XMLID_2247_">
					<path id="XMLID_346_" class="st2" d="M64.7,82.9c0-0.1,0-0.1,0-0.2s0-0.1,0-0.2v-5.4h-5.1C54.4,74.7,45.9,73,36.3,73
						s-18.1,1.6-23.2,4.1H7.9v6h0c0.6,5.2,13,9.3,28.3,9.3s27.7-4.1,28.3-9.3h0V82.9z"/>
				</g>
				<g id="XMLID_2246_">
					<ellipse id="XMLID_345_" class="st3" cx="36.3" cy="77.2" rx="28.4" ry="9.7"/>
				</g>
			</g>
			<g id="XMLID_2149_">
				<g id="XMLID_2244_">
					<path id="XMLID_344_" class="st4" d="M10,37.6v39h0c0,3.3,9,8.2,26.3,8.2c17.4,0,26.3-4.8,26.3-8.2h0v-39H10z"/>
				</g>
				<g id="XMLID_2243_">
					<ellipse id="XMLID_343_" class="st5" cx="36.3" cy="37.7" rx="26.3" ry="6"/>
				</g>
				<g id="XMLID_2242_">
					<path id="XMLID_342_" class="st5" d="M11.4,39.7c3.6-2.4,13.4-4.1,24.9-4.1s21.3,1.7,24.9,4.1c0.9-0.6,1.4-1.3,1.4-2
						c0-3.4-11.8-6-26.3-6S10,34.3,10,37.7C10,38.4,10.5,39.1,11.4,39.7z"/>
				</g>
				<g id="XMLID_2239_">
					<path id="XMLID_1092_" class="st6" d="M36.3,44c-11.4,0-21.3-1.7-25.1-4.3l0,0c-0.4-0.2-1.2-1.1-1.2-1.9c0,0,0-0.1,0-0.1v0
						c0,0,0,0,0-0.1c0-0.2,0.1-0.4,0.1-0.4c0.9-3,11.5-5.6,26.3-5.6c12.5,0,23.1,2,25.5,4.4c0.5,0.5,0.7,0.9,0.8,1.4
						c0,0.1,0,0.1,0,0.2c0,0.1,0,0.3-0.1,0.5c-0.2,0.6-0.7,1.2-1.5,1.8L61,40h0C59.7,40.8,53.5,44,36.3,44z M12.8,39.6
						c3.5,2.1,12.9,3.5,23.5,3.5c17.6,0,23.4-3.5,23.4-3.5c0.7-0.4,1.2-1.2,1.3-1.5c0-0.1,0-0.2,0-0.3l0-0.1c0-0.3-0.2-0.6-0.6-0.9
						c-2.6-2.4-12.7-4.2-24.1-4.2c-14.4,0-25.1,2.7-25.1,5.1C11.2,39,12.8,39.6,12.8,39.6z"/>
				</g>
				<g id="XMLID_2227_">
					<g id="XMLID_2238_">
						<path id="XMLID_341_" class="st4" d="M37.2,43.9c-0.3,0-0.6,0-0.9,0c-1.6,0-3.2,0-4.7-0.1v0.3v40.6c1.5,0.1,3,0.1,4.7,0.1
							c0.3,0,0.6,0,0.9,0c0.4,0,0.7,0,1.1,0V44.2v-0.3C38,43.9,37.6,43.9,37.2,43.9z"/>
					</g>
					<g id="XMLID_2237_">
						<path id="XMLID_340_" class="st6" d="M43.9,43.7c-1.8,0.1-3.7,0.2-5.6,0.2v0.3v40.6c2,0,3.8-0.2,5.6-0.3
							c0.4,0,0.7-0.1,1.1-0.1V43.9v-0.3C44.7,43.6,44.3,43.6,43.9,43.7z"/>
					</g>
					<g id="XMLID_2236_">
						<path id="XMLID_339_" class="st4" d="M50.6,43c-1.7,0.3-3.6,0.5-5.6,0.6v0.3v40.5c2-0.2,3.9-0.5,5.6-0.9
							c0.4-0.1,0.7-0.2,1.1-0.2V43.1v-0.3C51.4,42.9,51,42.9,50.6,43z"/>
					</g>
					<g id="XMLID_2235_">
						<path id="XMLID_338_" class="st6" d="M57.3,41.6c-1.6,0.5-3.5,0.9-5.6,1.2v0.3v40.2c2.2-0.5,4.1-1.1,5.6-1.8
							c0.4-0.2,0.8-0.3,1.1-0.5V41.4v-0.2C58.1,41.3,57.7,41.4,57.3,41.6z"/>
					</g>
					<g id="XMLID_2234_">
						<path id="XMLID_337_" class="st4" d="M11.5,39.9c-0.4-0.3-0.8-0.6-1-0.9c-0.1-0.2-0.3-0.3-0.3-0.5c0,0,0,0.1,0,0.1
							C10.1,38.4,10,38.2,10,38c0,0,0,0,0,0c0,0,0,0,0,0c0,0,0-0.1,0-0.1v0h0v38.9h0c0,0.4,0.2,0.9,0.5,1.4c0.3,0.4,0.6,0.8,1.1,1.2
							V40.2L11.5,39.9C11.5,40,11.5,39.9,11.5,39.9z"/>
					</g>
					<g id="XMLID_2233_">
						<path id="XMLID_336_" class="st6" d="M11.6,40v0.2v39.1c1.2,1,3.1,2,5.6,2.9V42.3V42C14.7,41.5,12.9,40.8,11.6,40z"/>
					</g>
					<g id="XMLID_2232_">
						<path id="XMLID_335_" class="st4" d="M23.9,43.2c-2-0.3-3.9-0.6-5.6-0.9c-0.4-0.1-0.7-0.2-1.1-0.3v0.3v39.9
							c0.4,0.1,0.7,0.2,1.1,0.4c1.6,0.5,3.5,0.9,5.6,1.3c0.4,0.1,0.7,0.1,1.1,0.2V43.6v-0.3C24.6,43.3,24.2,43.3,23.9,43.2z"/>
					</g>
					<g id="XMLID_2231_">
						<path id="XMLID_334_" class="st6" d="M30.5,43.8c-2-0.1-3.8-0.2-5.6-0.4v0.3v40.4c1.7,0.3,3.6,0.5,5.6,0.6
							c0.4,0,0.7,0,1.1,0.1V44.1v-0.3C31.3,43.8,30.9,43.8,30.5,43.8z"/>
					</g>
					<g id="XMLID_2228_">
						<g id="XMLID_2230_">
							<path id="XMLID_333_" class="st4" d="M61.1,39.9c-0.7,0.5-1.5,0.8-2.7,1.3v0.2V81c1.1-0.6,2.1-1.2,2.7-1.8L61.1,39.9
								C61.1,39.9,61.1,39.9,61.1,39.9z"/>
						</g>
						<g id="XMLID_2229_">
							<path id="XMLID_332_" class="st4" d="M62.7,76.7L62.7,76.7l0-39.1c0,0,0,0.5-0.1,0.7c-0.3,0.7-1.1,1.4-1.3,1.6v39.4
								C62.2,78.4,62.7,77.5,62.7,76.7z"/>
						</g>
					</g>
				</g>
				<g id="XMLID_2226_">
					<polygon id="XMLID_331_" points="21,33.7 21,38.8 21.8,38.8 21.8,33.6 					"/>
				</g>
				<g id="XMLID_2225_">
					<polygon id="XMLID_330_" points="27.6,32.9 27.6,37.9 28.5,37.9 28.5,32.9 					"/>
				</g>
				<g id="XMLID_2224_">
					<polygon id="XMLID_329_" points="34,32.6 34,37.7 34.7,37.7 34.7,32.6 					"/>
				</g>
				<g id="XMLID_2223_">
					<polygon id="XMLID_328_" points="40.5,32.7 40.5,37.8 41.1,37.8 41.1,32.7 					"/>
				</g>
				<g id="XMLID_2222_">
					<path id="XMLID_327_" d="M46.9,33.2v5.1l0.8,0.1v-5.1C47.7,33.2,46.9,33.1,46.9,33.2z"/>
				</g>
				<g id="XMLID_2221_">
					<polygon id="XMLID_326_" points="54.6,34.4 54.6,39.3 55.2,39.4 55.4,34.7 					"/>
				</g>
				<g id="XMLID_2220_">
					<path id="XMLID_325_" d="M59.7,36.3l0,3.3c0,0,0.3-0.1,0.4-0.3c0.2-0.2,0.2-0.2,0.2-0.2l0-2.4L59.7,36.3z"/>
				</g>
				<g id="XMLID_2219_">
					<polygon id="XMLID_324_" points="15.2,35.1 15.2,40.1 14.6,40.3 14.4,35.3 					"/>
				</g>
				<g id="XMLID_2199_">
					<g id="XMLID_2218_">
						<path id="XMLID_323_" class="st7" d="M13.4,40.6c4.5,1.8,13.1,3.1,22.9,3.1c9.8,0,18.4-1.2,22.9-3.1
							c-4.5-1.9-13.1-3.1-22.9-3.1C26.4,37.5,17.9,38.8,13.4,40.6z"/>
					</g>
					<g id="XMLID_2200_">
						<g id="XMLID_2215_">
							<g id="XMLID_2217_">
								<path id="XMLID_322_" class="st8" d="M22.3,39.5c-0.4,0-0.8,0.4-0.8,0.8c0.3,0.1,0.6,0.1,0.9,0.1c0.2,0,0.5,0,0.7,0
									c0,0,0,0,0,0C23.2,39.9,22.8,39.5,22.3,39.5z"/>
							</g>
							<g id="XMLID_2216_">
								<path id="XMLID_321_" class="st8" d="M20.2,40.2c-0.5,0-1,0.4-1,1c0.3,0.1,0.7,0.1,1.1,0.1c0.3,0,0.6,0,0.8-0.1c0,0,0,0,0,0
									C21.2,40.7,20.7,40.2,20.2,40.2z"/>
							</g>
						</g>
						<g id="XMLID_2212_">
							<g id="XMLID_2214_">
								<path id="XMLID_320_" class="st8" d="M27.3,38.3c0.6,0,1.1,0.5,1.1,1.1c-0.4,0.1-0.8,0.1-1.2,0.1c-0.3,0-0.6,0-0.9-0.1
									c0,0,0,0,0,0C26.2,38.8,26.7,38.3,27.3,38.3z"/>
							</g>
							<g id="XMLID_2213_">
								<path id="XMLID_319_" class="st8" d="M30.1,39.3c0.7,0,1.3,0.6,1.3,1.3c-0.4,0.1-1,0.1-1.5,0.1c-0.4,0-0.7,0-1.1-0.1
									c0,0,0,0,0,0C28.8,39.9,29.4,39.3,30.1,39.3z"/>
							</g>
						</g>
						<g id="XMLID_2208_">
							<g id="XMLID_2211_">
								<path id="XMLID_318_" class="st8" d="M41.1,38.1c-0.8,0-1.4,0.6-1.4,1.4c0.5,0.1,1,0.2,1.6,0.2c0.4,0,0.8,0,1.2-0.1
									c0,0,0,0,0,0C42.5,38.7,41.9,38.1,41.1,38.1z"/>
							</g>
							<g id="XMLID_2210_">
								<path id="XMLID_317_" class="st8" d="M44.2,39.3c-0.4,0-0.8,0.4-0.8,0.8c0.3,0.1,0.6,0.1,0.9,0.1c0.2,0,0.5,0,0.7,0
									c0,0,0,0,0,0C45,39.7,44.7,39.3,44.2,39.3z"/>
							</g>
							<g id="XMLID_2209_">
								<path id="XMLID_316_" class="st8" d="M42.1,40c-0.5,0-1,0.4-1,1c0.3,0.1,0.7,0.1,1.1,0.1c0.3,0,0.6,0,0.8-0.1c0,0,0,0,0,0
									C43.1,40.5,42.6,40,42.1,40z"/>
							</g>
						</g>
						<g id="XMLID_2204_">
							<g id="XMLID_2207_">
								<path id="XMLID_315_" class="st8" d="M34.8,40.9c-0.6,0-1.1,0.5-1.1,1.1c0.4,0.1,0.8,0.1,1.3,0.1c0.3,0,0.6,0,0.9-0.1
									c0,0,0,0,0,0C36,41.4,35.5,40.9,34.8,40.9z"/>
							</g>
							<g id="XMLID_2206_">
								<path id="XMLID_314_" class="st8" d="M37.4,41.8c-0.4,0-0.6,0.3-0.7,0.7c0.2,0,0.5,0.1,0.8,0.1c0.2,0,0.4,0,0.5,0
									c0,0,0,0,0,0C38,42.1,37.7,41.8,37.4,41.8z"/>
							</g>
							<g id="XMLID_2205_">
								<path id="XMLID_313_" class="st8" d="M35.6,42.4c-0.4,0-0.8,0.4-0.8,0.8c0.3,0.1,0.6,0.1,0.9,0.1c0.2,0,0.5,0,0.7,0
									c0,0,0,0,0,0C36.4,42.8,36.1,42.4,35.6,42.4z"/>
							</g>
						</g>
						<g id="XMLID_2201_">
							<g id="XMLID_2203_">
								<path id="XMLID_312_" class="st8" d="M53.7,38.6c-0.6,0-1,0.5-1,1c0.4,0.1,0.7,0.1,1.2,0.1c0.3,0,0.6,0,0.9-0.1c0,0,0,0,0,0
									C54.7,39.1,54.2,38.6,53.7,38.6z"/>
							</g>
							<g id="XMLID_2202_">
								<path id="XMLID_311_" class="st8" d="M51,39.5c-0.7,0-1.2,0.5-1.2,1.2c0.4,0.1,0.9,0.1,1.4,0.1c0.4,0,0.7,0,1-0.1
									c0,0,0,0,0,0C52.2,40.1,51.6,39.5,51,39.5z"/>
							</g>
						</g>
					</g>
				</g>
				<g id="XMLID_2176_">
					<g id="XMLID_2198_">
						<path id="XMLID_310_" class="st6" d="M10,37.6l1.3,0c0,0-0.1,0.5,0.2,1c0.2,0.3,1,0.9,1,0.9L11.6,40c0,0-0.6-0.3-1-0.8
							C10.1,38.5,9.9,38,10,37.6z"/>
					</g>
					<g id="XMLID_2197_">
						<path id="XMLID_307_" class="st4" d="M11.6,40l0.9-0.5c0,0,1.1,0.6,2.1,1c0.9,0.3,3,0.9,3,0.9L17.2,42c0,0-1.2-0.2-3.1-0.8
							C12.3,40.6,11.6,40,11.6,40z"/>
					</g>
					<g id="XMLID_2196_">
						<polygon id="XMLID_306_" class="st4" points="25.3,42.5 31.8,43 31.7,43.9 25,43.4 						"/>
					</g>
					<g id="XMLID_2195_">
						<polygon id="XMLID_305_" class="st6" points="31.8,43 38.3,43 38.3,44 31.7,43.9 						"/>
					</g>
					<g id="XMLID_2194_">
						<path id="XMLID_304_" class="st6" d="M17.6,41.3L17.2,42c0,0,0.9,0.4,3.4,0.8c2.5,0.4,4.4,0.6,4.4,0.6l0.3-0.9
							c0,0-1.9-0.2-4-0.5S17.6,41.3,17.6,41.3z"/>
					</g>
					<g id="XMLID_2193_">
						<polygon id="XMLID_303_" class="st4" points="38.3,43 38.3,44 45.1,43.7 44.5,42.8 						"/>
					</g>
					<g id="XMLID_2192_">
						<path id="XMLID_302_" class="st6" d="M44.5,42.8l6.4-0.7l0.8,0.9c0,0-2.5,0.3-3.3,0.5c-0.9,0.1-3.5,0.4-3.5,0.4L44.5,42.8z"/>
					</g>
					<g id="XMLID_2191_">
						<path id="XMLID_301_" class="st4" d="M57.5,40.5l0.9,0.7c0,0-1.7,0.6-3.4,1c-1.7,0.4-3.2,0.7-3.2,0.7L51,42
							c0,0,2.1-0.4,3.2-0.6C55.4,41.2,57.5,40.5,57.5,40.5z"/>
					</g>
					<g id="XMLID_2190_">
						<path id="XMLID_300_" class="st6" d="M62.6,38.1l-1.7,0c0,0,0.2-0.4-0.3-1c-0.2-0.3-0.8-0.7-0.8-0.7l1.2-0.8
							c0,0,0.6,0.3,1,0.9C62.6,37.1,62.6,37.6,62.6,38.1z"/>
					</g>
					<g id="XMLID_2189_">
						<path id="XMLID_299_" class="st4" d="M61.1,35.6l-1.2,0.8c0,0-1.2-0.7-2.2-1.1c-0.9-0.3-2.8-0.8-2.8-0.8l0.6-1
							c0,0,1.3,0.2,3.1,0.8C60.4,35,61.1,35.6,61.1,35.6z"/>
					</g>
					<g id="XMLID_2188_">
						<polygon id="XMLID_298_" class="st4" points="47.2,33.2 40.8,32.6 40.9,31.7 47.6,32.2 						"/>
					</g>
					<g id="XMLID_2187_">
						<polygon id="XMLID_297_" class="st6" points="40.8,32.6 34.2,32.6 34.2,31.6 40.9,31.7 						"/>
					</g>
					<g id="XMLID_2186_">
						<path id="XMLID_296_" class="st6" d="M54.9,34.5l0.6-1c0,0-0.9-0.4-3.4-0.8c-2.5-0.4-4.5-0.6-4.5-0.6l-0.3,1
							c0,0,1.7,0.2,3.8,0.5C53.2,34,54.9,34.5,54.9,34.5z"/>
					</g>
					<g id="XMLID_2185_">
						<polygon id="XMLID_295_" class="st4" points="34.2,32.6 34.2,31.6 27.4,31.9 28,32.9 						"/>
					</g>
					<g id="XMLID_2184_">
						<path id="XMLID_294_" class="st4" d="M28,32.9l-6.5,0.7l-0.8-0.9c0,0,2.5-0.3,3.3-0.5c0.9-0.1,3.5-0.4,3.5-0.4L28,32.9z"/>
					</g>
					<g id="XMLID_2183_">
						<path id="XMLID_293_" class="st4" d="M14.9,35.1L14,34.4c0,0,1.7-0.6,3.5-1s3.2-0.7,3.2-0.7l0.8,0.9c0,0-2.1,0.4-3.2,0.6
							S14.9,35.1,14.9,35.1z"/>
					</g>
					<g id="XMLID_2180_">
						<g id="XMLID_2182_">
							<path id="XMLID_292_" class="st6" d="M10.9,36.1C10,36.8,10,37.7,10,37.7l1.3-0.2c0,0,0.3-0.7,1.2-1.3c0.1,0,0.1-0.1,0.2-0.1
								l-1.1-0.5C11.3,35.8,11.1,35.9,10.9,36.1z"/>
						</g>
						<g id="XMLID_2181_">
							<path id="XMLID_291_" class="st6" d="M14,34.4c0,0-1.2,0.4-2.5,1.2l1.1,0.5c1-0.5,2.3-1,2.3-1L14,34.4z"/>
						</g>
					</g>
					<g id="XMLID_2177_">
						<g id="XMLID_2179_">
							<path id="XMLID_290_" class="st6" d="M59.8,39.5c-1,0.6-2.3,1-2.3,1l0.9,0.7c0,0,1.4-0.4,2.7-1.4l-1-0.6
								C60,39.4,59.9,39.4,59.8,39.5z"/>
						</g>
						<g id="XMLID_2178_">
							<path id="XMLID_289_" class="st6" d="M62.6,37.9L60.9,38c0,0-0.2,0.7-0.8,1.3l1,0.6c0.1-0.1,0.4-0.2,0.5-0.3
								C62.7,38.5,62.6,37.9,62.6,37.9z"/>
						</g>
					</g>
				</g>
				<g id="XMLID_2159_">
					<g id="XMLID_2175_">
						<polygon id="XMLID_288_" points="17.6,82.4 16.9,82.1 16.9,42 17.6,42.1 						"/>
					</g>
					<g id="XMLID_2174_">
						<polygon id="XMLID_287_" points="25.3,84.1 24.6,84 24.6,43.3 25.4,43.4 						"/>
					</g>
					<g id="XMLID_2173_">
						<polygon id="XMLID_286_" points="32,84.8 31.3,84.7 31.3,43.8 32,43.9 						"/>
					</g>
					<g id="XMLID_2172_">
						<polygon id="XMLID_285_" points="38.7,84.8 38,84.9 38,43.9 38.7,43.9 						"/>
					</g>
					<g id="XMLID_2171_">
						<polygon id="XMLID_284_" points="45.3,84.4 44.6,84.5 44.6,43.6 45.3,43.6 						"/>
					</g>
					<g id="XMLID_2170_">
						<polygon id="XMLID_283_" points="52,83.2 51.3,83.4 51.3,42.9 52,42.8 						"/>
					</g>
					<g id="XMLID_2169_">
						<polygon id="XMLID_282_" points="58.7,80.9 58.1,81.2 58,41.3 58.7,41.1 						"/>
					</g>
					<g id="XMLID_2168_">
						<polygon id="XMLID_281_" points="11.9,79.6 11.4,79.3 11.4,39.9 11.9,40.2 						"/>
					</g>
					<g id="XMLID_2167_">
						<polygon id="XMLID_280_" points="58.7,41.1 57.9,40.4 57.1,40.6 58,41.3 						"/>
					</g>
					<g id="XMLID_2166_">
						<polygon id="XMLID_279_" points="51.4,41.9 52,42.8 51.3,42.9 50.8,42 						"/>
					</g>
					<g id="XMLID_2165_">
						<polygon id="XMLID_278_" points="45.3,43.6 44.9,42.7 44.2,42.8 44.6,43.6 						"/>
					</g>
					<g id="XMLID_2164_">
						<polygon id="XMLID_277_" points="38.7,43.9 38.7,43 38.1,43 38,43.9 						"/>
					</g>
					<g id="XMLID_2163_">
						<polygon id="XMLID_276_" points="32,43.9 32.1,43 31.5,43 31.3,43.8 						"/>
					</g>
					<g id="XMLID_2162_">
						<polygon id="XMLID_275_" points="25.4,43.4 25.6,42.6 24.9,42.5 24.6,43.3 						"/>
					</g>
					<g id="XMLID_2161_">
						<polygon id="XMLID_274_" points="16.9,42 17.3,41.2 17.9,41.4 17.6,42.1 						"/>
					</g>
					<g id="XMLID_2160_">
						<polygon id="XMLID_273_" points="11.4,39.9 12.3,39.4 12.8,39.6 11.9,40.2 						"/>
					</g>
				</g>
				<g id="XMLID_2150_">
					<g id="XMLID_2158_">
						<polygon id="XMLID_272_" points="13.6,34.6 14.2,34.3 15.2,35.1 14.4,35.3 						"/>
					</g>
					<g id="XMLID_2157_">
						<polygon id="XMLID_271_" points="20.4,32.8 21.1,32.7 21.8,33.6 21,33.7 						"/>
					</g>
					<g id="XMLID_2156_">
						<polygon id="XMLID_270_" points="27.2,31.9 28,31.9 28.5,32.9 27.6,32.9 						"/>
					</g>
					<g id="XMLID_2155_">
						<polygon id="XMLID_269_" points="33.9,31.6 34.6,31.6 34.6,32.6 34,32.6 						"/>
					</g>
					<g id="XMLID_2154_">
						<polygon id="XMLID_268_" points="40.5,31.7 41.3,31.7 41.2,32.7 40.5,32.7 						"/>
					</g>
					<g id="XMLID_2153_">
						<polygon id="XMLID_267_" points="47.2,32.2 48.1,32.2 47.7,33.2 46.9,33.2 						"/>
					</g>
					<g id="XMLID_2152_">
						<polygon id="XMLID_266_" points="55,33.4 56,33.7 55.4,34.7 54.6,34.4 						"/>
					</g>
					<g id="XMLID_2151_">
						<polygon id="XMLID_265_" points="59.7,36.3 60.8,35.4 61.5,35.8 60.2,36.7 						"/>
					</g>
				</g>
			</g>
			<g id="XMLID_2145_">
				<g id="XMLID_2148_">
					<path id="XMLID_264_" class="st9" d="M11.1,47C11.2,47,11.2,47,11.1,47c1.5,0.8,3.3,1.5,5.8,2.1c0.4,0.1,0.7,0.2,1.1,0.3
						c1.7,0.4,3.6,0.7,5.7,0.9c0.4,0,0.7,0.1,1.1,0.1c1.8,0.2,3.7,0.3,5.7,0.4c0.4,0,0.7,0,1.1,0.1c1.5,0.1,3.1,0.1,4.7,0.1
						c0.3,0,0.6,0,0.9,0c0.4,0,0.7,0,1.1,0c2,0,3.8-0.1,5.7-0.2c0.4,0,0.7-0.1,1.1-0.1c2-0.2,3.9-0.4,5.7-0.6
						c0.4-0.1,0.8-0.1,1.1-0.2c2.2-0.3,4.1-0.8,5.7-1.2c0.4-0.1,0.8-0.2,1.1-0.4c1.2-0.5,2-0.8,2.7-1.3c0,0,0,0,0.1,0
						c0.2-0.1,0.8-0.6,1.1-1.1H9.9c0.1,0.1,0.1,0.2,0.2,0.3C10.4,46.4,10.7,46.7,11.1,47z"/>
				</g>
				<g id="XMLID_2147_">
					<path id="XMLID_263_" class="st2" d="M62.8,46c-0.3,0.7-1.1,1.4-1.4,1.6c0,0-0.1,0-0.1,0c-0.7,0.5-1.5,0.8-2.7,1.3
						c-0.4,0.1-0.7,0.2-1.1,0.4c-1.6,0.5-3.5,0.9-5.7,1.2c-0.4,0.1-0.7,0.1-1.1,0.2c-1.8,0.3-3.7,0.5-5.7,0.6
						c-0.4,0-0.7,0.1-1.1,0.1c-1.8,0.1-3.7,0.2-5.7,0.2c-0.4,0-0.7,0-1.1,0c-0.3,0-0.6,0-0.9,0c-1.6,0-3.2,0-4.7-0.1
						c-0.4,0-0.7,0-1.1-0.1c-2-0.1-3.9-0.2-5.7-0.4c-0.4,0-0.8-0.1-1.1-0.1c-2.1-0.3-4-0.6-5.7-0.9c-0.4-0.1-0.8-0.2-1.1-0.3
						c-2.5-0.6-4.3-1.3-5.7-2.1c0,0-0.1,0-0.1-0.1c-0.4-0.3-0.8-0.6-1-0.9c-0.1-0.2-0.3-0.3-0.3-0.5c0,0,0,0.1,0,0.1
						c-0.1-0.2-0.1-0.4-0.2-0.6h0v6.5c0.1,0.1,0.1,0.2,0.2,0.3c0.3,0.3,0.6,0.6,1,0.9c0,0,0.1,0,0.1,0.1c1.4,0.8,3.2,1.5,5.7,2.1
						c0.4,0.1,0.7,0.2,1.1,0.3c1.7,0.4,3.6,0.7,5.7,0.9c0.4,0,0.7,0.1,1.1,0.1c1.8,0.2,3.7,0.3,5.7,0.4c0.4,0,0.8,0,1.1,0.1
						c1.6,0.1,3.2,0.1,4.8,0.1c0.3,0,0.6,0,0.9,0c0.4,0,0.8,0,1.1,0c2,0,3.9-0.1,5.7-0.2c0.4,0,0.8-0.1,1.1-0.1
						c2-0.2,3.9-0.4,5.7-0.6c0.4-0.1,0.8-0.1,1.1-0.2c2.2-0.3,4.1-0.8,5.7-1.2c0.4-0.1,0.8-0.2,1.1-0.4c1.2-0.5,2-0.8,2.7-1.3
						c0,0,0,0,0.1,0c0.2-0.1,0.9-0.7,1.2-1.3l0-6.3h-0.1C62.9,45.9,62.9,46,62.8,46z"/>
				</g>
				<g id="XMLID_2146_">
					<path id="XMLID_262_" class="st3" d="M62.9,45.8h-0.3c-0.4,0.5-0.9,1-1.1,1.1c0,0-0.1,0-0.1,0c-0.7,0.5-1.5,0.8-2.7,1.3
						c-0.4,0.1-0.7,0.2-1.1,0.4c-1.6,0.5-3.5,0.9-5.7,1.2c-0.4,0.1-0.7,0.1-1.1,0.2c-1.8,0.3-3.7,0.5-5.7,0.6
						c-0.4,0-0.7,0.1-1.1,0.1c-1.8,0.1-3.7,0.2-5.7,0.2c-0.4,0-0.7,0-1.1,0c-0.3,0-0.6,0-0.9,0c-1.6,0-3.2,0-4.7-0.1
						c-0.4,0-0.7,0-1.1-0.1c-2-0.1-3.9-0.2-5.7-0.4c-0.4,0-0.8-0.1-1.1-0.1c-2.1-0.3-4-0.6-5.7-0.9c-0.4-0.1-0.8-0.2-1.1-0.3
						c-2.5-0.6-4.3-1.3-5.7-2.1c0,0-0.1,0-0.1-0.1c-0.4-0.3-0.8-0.6-1-0.9C10,46,10,45.9,9.9,45.8H9.7h0c0,0.2,0.1,0.4,0.2,0.6
						c0,0,0-0.1,0-0.1c0.1,0.2,0.2,0.3,0.3,0.5c0.2,0.3,0.6,0.6,1,0.9c0,0,0.1,0,0.1,0.1c1.4,0.8,3.2,1.5,5.7,2.1
						c0.4,0.1,0.7,0.2,1.1,0.3c1.7,0.4,3.6,0.7,5.7,0.9c0.4,0,0.7,0.1,1.1,0.1c1.8,0.2,3.7,0.3,5.7,0.4c0.4,0,0.7,0,1.1,0.1
						c1.5,0.1,3.1,0.1,4.7,0.1c0.3,0,0.6,0,0.9,0c0.4,0,0.7,0,1.1,0c2,0,3.8-0.1,5.7-0.2c0.4,0,0.7-0.1,1.1-0.1
						c2-0.2,3.9-0.4,5.7-0.6c0.4-0.1,0.8-0.1,1.1-0.2c2.2-0.3,4.1-0.8,5.7-1.2c0.4-0.1,0.8-0.2,1.1-0.4c1.2-0.5,2-0.8,2.7-1.3
						c0,0,0,0,0.1,0c0.2-0.2,1.1-0.8,1.4-1.6C62.9,46,62.9,45.9,62.9,45.8L62.9,45.8z"/>
				</g>
			</g>
			<g id="XMLID_2140_">
				<g id="XMLID_2141_">
					<g id="XMLID_2144_">
						<path id="XMLID_261_" class="st9" d="M11.1,68C11.1,68,11.2,68,11.1,68c1.4,1.1,3.2,2,5.7,2.8c0.4,0.1,0.7,0.2,1.1,0.3
							c1.7,0.5,3.6,0.9,5.7,1.3c0.4,0.1,0.7,0.1,1.1,0.2c1.8,0.3,3.7,0.5,5.7,0.6c0.4,0,0.8,0.1,1.1,0.1c1.6,0.1,3.2,0.1,4.8,0.1
							c0.3,0,0.6,0,0.9,0c0.4,0,0.8,0,1.1,0c2,0,3.9-0.2,5.7-0.3c0.4,0,0.8-0.1,1.1-0.1c2-0.2,3.9-0.5,5.7-0.9
							c0.4-0.1,0.8-0.2,1.1-0.2c2.2-0.5,4.1-1.1,5.7-1.7c0.4-0.2,0.8-0.3,1.1-0.5c1.2-0.6,2-1.1,2.6-1.7c0,0,0,0,0.1-0.1
							c0.2-0.2,0.7-0.7,1-1.4c-17.6,1-35.1,1-52.7,0c0.1,0.1,0.1,0.3,0.2,0.4C10.4,67.3,10.7,67.6,11.1,68z"/>
					</g>
					<g id="XMLID_2143_">
						<path id="XMLID_260_" class="st2" d="M62.9,66.8c-0.2,0.9-1,1.7-1.3,1.9c0,0-0.1,0.1-0.1,0.1c-0.7,0.6-1.4,1-2.6,1.7
							c-0.4,0.2-0.7,0.3-1.1,0.5c-1.6,0.6-3.5,1.2-5.7,1.7c-0.4,0.1-0.7,0.2-1.1,0.2c-1.8,0.4-3.7,0.7-5.7,0.9
							c-0.4,0-0.8,0.1-1.1,0.1c-1.8,0.2-3.8,0.3-5.8,0.3c-0.4,0-0.8,0-1.1,0c-0.3,0-0.6,0-0.9,0c-1.6,0-3.3,0-4.8-0.1
							c-0.4,0-0.8,0-1.1-0.1c-2-0.1-3.9-0.4-5.7-0.6c-0.4-0.1-0.8-0.1-1.1-0.2c-2.1-0.4-4-0.8-5.7-1.3c-0.4-0.1-0.8-0.2-1.1-0.3
							c-2.5-0.8-4.3-1.7-5.6-2.7c0,0-0.1-0.1-0.1-0.1c-0.4-0.4-0.7-0.7-1-1.1c-0.1-0.2-0.2-0.4-0.3-0.6c0,0,0,0.1,0,0.1
							c-0.1-0.2-0.1-0.5-0.1-0.7c0,0,0,0,0,0c-0.2,3.1,0,8.1,0,8.1L9.8,75c0,0,0.1,0.3,0.6,0.6c0,0,0.1,0.1,0.1,0.1
							c1.3,1,3.2,1.9,5.7,2.7c0.4,0.1,0.8,0.2,1.1,0.3c1.7,0.5,3.7,0.9,5.8,1.3c0.4,0.1,0.8,0.1,1.2,0.2c1.9,0.3,3.8,0.5,5.9,0.6
							c0.4,0,0.8,0.1,1.2,0.1c1.6,0.1,3.3,0.1,4.9,0.1c0.3,0,0.6,0,1,0c0.4,0,0.8,0,1.2,0c2,0,4-0.2,5.9-0.3c0.4,0,0.8-0.1,1.2-0.1
							c2.1-0.2,4.1-0.5,5.9-0.9c0.4-0.1,0.8-0.2,1.2-0.2c2.2-0.5,4.2-1.1,5.8-1.7c0.4-0.2,0.8-0.3,1.1-0.5c1.2-0.6,2-1.1,2.7-1.7
							c0,0,0,0,0.1-0.1c0.2-0.2,0.6-0.7,0.6-0.7l0.1-8.3c0,0,0,0-0.1,0C62.9,66.6,62.9,66.7,62.9,66.8z"/>
					</g>
					<g id="XMLID_2142_">
						<path id="XMLID_259_" class="st3" d="M62.9,66.5c-0.1,0-0.2,0-0.3,0c-0.3,0.7-0.9,1.2-1,1.4c0,0-0.1,0.1-0.1,0.1
							c-0.7,0.6-1.4,1-2.6,1.7c-0.3,0.2-0.7,0.3-1.1,0.5c-1.6,0.6-3.5,1.2-5.7,1.7c-0.4,0.1-0.7,0.2-1.1,0.2
							c-1.8,0.4-3.7,0.7-5.7,0.9c-0.4,0-0.8,0.1-1.1,0.1c-1.8,0.2-3.8,0.3-5.7,0.3c-0.4,0-0.8,0-1.1,0c-0.3,0-0.6,0-0.9,0
							c-1.6,0-3.3,0-4.8-0.1c-0.4,0-0.8,0-1.1-0.1c-2-0.1-3.9-0.4-5.7-0.6c-0.4-0.1-0.8-0.1-1.1-0.2c-2.1-0.4-4-0.8-5.7-1.3
							c-0.4-0.1-0.8-0.2-1.1-0.3c-2.5-0.8-4.3-1.7-5.6-2.7c0,0-0.1-0.1-0.1-0.1c-0.4-0.4-0.7-0.7-1-1.1c-0.1-0.1-0.1-0.3-0.2-0.4
							c-0.1,0-0.1,0-0.2,0c0,0,0,0,0,0c0,0.2,0,0.5,0.1,0.7c0,0,0-0.1,0-0.1c0.1,0.2,0.2,0.4,0.3,0.6c0.2,0.4,0.6,0.7,1,1.1
							c0,0,0.1,0.1,0.1,0.1c1.3,1,3.1,1.9,5.6,2.7c0.4,0.1,0.7,0.2,1.1,0.3c1.7,0.5,3.6,0.9,5.7,1.3c0.4,0.1,0.7,0.1,1.1,0.2
							c1.8,0.3,3.7,0.5,5.7,0.6c0.4,0,0.8,0.1,1.1,0.1c1.6,0.1,3.2,0.1,4.8,0.1c0.3,0,0.6,0,0.9,0c0.4,0,0.8,0,1.1,0
							c2,0,3.9-0.2,5.8-0.3c0.4,0,0.8-0.1,1.1-0.1c2-0.2,4-0.5,5.7-0.9c0.4-0.1,0.8-0.2,1.1-0.2c2.2-0.5,4.1-1.1,5.7-1.7
							c0.4-0.2,0.8-0.3,1.1-0.5c1.2-0.6,2-1.1,2.6-1.7c0,0,0,0,0.1-0.1c0.2-0.2,1-1.1,1.3-1.9C62.9,66.7,62.9,66.6,62.9,66.5
							C62.9,66.5,62.9,66.5,62.9,66.5z"/>
					</g>
				</g>
			</g>
		</g>
	</g>
	<g id="XMLID_2111_">
		<g id="XMLID_2137_">
			<path id="XMLID_258_" class="st7" d="M13.2,39.8c3.5,1.9,13.2,3.2,23.1,3.2c9.8,0,19.4-1.5,23-3.3c-4.5-1.9-13.1-3.1-22.9-3.1
				C26.5,36.7,17.7,37.9,13.2,39.8z"/>
		</g>
		<g id="XMLID_2112_">
			<g id="XMLID_2133_">
				<g id="XMLID_2136_">
					<path id="XMLID_257_" class="st8" d="M19.3,37.5c-0.8,0-1.4,0.6-1.4,1.4c0.5,0.1,1,0.2,1.6,0.2c0.4,0,0.8,0,1.2-0.1
						c0,0,0,0,0,0C20.7,38.1,20,37.5,19.3,37.5z"/>
				</g>
				<g id="XMLID_2135_">
					<path id="XMLID_256_" class="st8" d="M22.4,38.7c-0.4,0-0.8,0.4-0.8,0.8c0.3,0.1,0.6,0.1,0.9,0.1c0.2,0,0.5,0,0.7,0
						c0,0,0,0,0,0C23.2,39.1,22.8,38.7,22.4,38.7z"/>
				</g>
				<g id="XMLID_2134_">
					<path id="XMLID_255_" class="st8" d="M20.2,39.4c-0.5,0-1,0.4-1,1c0.3,0.1,0.7,0.1,1.1,0.1c0.3,0,0.6,0,0.8-0.1c0,0,0,0,0,0
						C21.2,39.9,20.8,39.4,20.2,39.4z"/>
				</g>
			</g>
			<g id="XMLID_2129_">
				<g id="XMLID_2132_">
					<path id="XMLID_254_" class="st8" d="M31.4,35.9c1,0,1.8,0.8,1.8,1.8c-0.6,0.1-1.3,0.2-2.1,0.2c-0.5,0-1,0-1.5-0.1
						c0,0,0,0,0-0.1C29.6,36.8,30.4,35.9,31.4,35.9z"/>
				</g>
				<g id="XMLID_2131_">
					<path id="XMLID_253_" class="st8" d="M27.3,37.5c0.6,0,1.1,0.5,1.1,1.1c-0.4,0.1-0.8,0.1-1.2,0.1c-0.3,0-0.6,0-0.9-0.1
						c0,0,0,0,0,0C26.3,38,26.7,37.5,27.3,37.5z"/>
				</g>
				<g id="XMLID_2130_">
					<path id="XMLID_252_" class="st8" d="M30.2,38.5c0.7,0,1.3,0.6,1.3,1.3c-0.4,0.1-1,0.1-1.5,0.1c-0.4,0-0.7,0-1.1-0.1
						c0,0,0,0,0,0C28.9,39.1,29.4,38.5,30.2,38.5z"/>
				</g>
			</g>
			<g id="XMLID_2125_">
				<g id="XMLID_2128_">
					<path id="XMLID_251_" class="st8" d="M41.2,37.3c-0.8,0-1.4,0.6-1.4,1.4c0.5,0.1,1,0.2,1.6,0.2c0.4,0,0.8,0,1.2-0.1
						c0,0,0,0,0,0C42.5,37.9,41.9,37.3,41.2,37.3z"/>
				</g>
				<g id="XMLID_2127_">
					<path id="XMLID_250_" class="st8" d="M44.3,38.5c-0.4,0-0.8,0.4-0.8,0.8c0.3,0.1,0.6,0.1,0.9,0.1c0.2,0,0.5,0,0.7,0
						c0,0,0,0,0,0C45.1,38.8,44.7,38.5,44.3,38.5z"/>
				</g>
				<g id="XMLID_2126_">
					<path id="XMLID_249_" class="st8" d="M42.1,39.2c-0.5,0-1,0.4-1,1c0.3,0.1,0.7,0.1,1.1,0.1c0.3,0,0.6,0,0.8-0.1c0,0,0,0,0,0
						C43.1,39.7,42.7,39.2,42.1,39.2z"/>
				</g>
			</g>
			<g id="XMLID_2117_">
				<g id="XMLID_2124_">
					<path id="XMLID_248_" class="st8" d="M31.8,41c-0.6,0-1.1,0.5-1.1,1.1c0.4,0.1,0.8,0.1,1.3,0.1c0.3,0,0.6,0,0.9-0.1
						c0,0,0,0,0,0C32.9,41.5,32.4,41,31.8,41z"/>
				</g>
				<g id="XMLID_2123_">
					<path id="XMLID_247_" class="st8" d="M26.7,40.4c-0.6,0-1.1,0.5-1.1,1.1c0.4,0.1,0.8,0.1,1.3,0.1c0.3,0,0.6,0,0.9-0.1
						c0,0,0,0,0,0C27.8,41,27.3,40.4,26.7,40.4z"/>
				</g>
				<g id="XMLID_2122_">
					<path id="XMLID_246_" class="st8" d="M38,41.6c-0.4,0-0.6,0.3-0.7,0.7c0.2,0,0.5,0.1,0.8,0.1c0.2,0,0.4,0,0.5,0c0,0,0,0,0,0
						C38.6,41.9,38.3,41.6,38,41.6z"/>
				</g>
				<g id="XMLID_2121_">
					<path id="XMLID_245_" class="st8" d="M47.9,41.2c-0.4,0-0.6,0.3-0.7,0.7c0.2,0,0.5,0.1,0.8,0.1c0.2,0,0.4,0,0.5,0c0,0,0,0,0,0
						C48.5,41.5,48.2,41.2,47.9,41.2z"/>
				</g>
				<g id="XMLID_2120_">
					<path id="XMLID_244_" class="st8" d="M34.9,41.2c-0.4,0-0.8,0.4-0.8,0.8c0.3,0.1,0.6,0.1,0.9,0.1c0.2,0,0.5,0,0.7,0
						c0,0,0,0,0,0C35.7,41.6,35.4,41.2,34.9,41.2z"/>
				</g>
				<g id="XMLID_2119_">
					<path id="XMLID_243_" class="st8" d="M40.2,40.7c-0.4,0-0.8,0.4-0.8,0.8c0.3,0.1,0.6,0.1,0.9,0.1c0.2,0,0.5,0,0.7,0
						c0,0,0,0,0,0C41,41,40.6,40.7,40.2,40.7z"/>
				</g>
				<g id="XMLID_2118_">
					<path id="XMLID_242_" class="st8" d="M36,41c-0.4,0-0.6,0.3-0.7,0.7c0.2,0,0.5,0.1,0.8,0.1c0.2,0,0.4,0,0.5,0c0,0,0,0,0,0
						C36.6,41.3,36.3,41,36,41z"/>
				</g>
			</g>
			<g id="XMLID_2113_">
				<g id="XMLID_2116_">
					<path id="XMLID_241_" class="st8" d="M49.8,36.3c-0.9,0-1.7,0.8-1.7,1.7c0.6,0.1,1.3,0.2,2,0.2c0.5,0,1,0,1.5-0.1
						c0,0,0,0,0-0.1C51.5,37.1,50.8,36.3,49.8,36.3z"/>
				</g>
				<g id="XMLID_2115_">
					<path id="XMLID_240_" class="st8" d="M53.7,37.8c-0.6,0-1,0.5-1,1c0.4,0.1,0.7,0.1,1.2,0.1c0.3,0,0.6,0,0.9-0.1c0,0,0,0,0,0
						C54.7,38.2,54.3,37.8,53.7,37.8z"/>
				</g>
				<g id="XMLID_2114_">
					<path id="XMLID_239_" class="st8" d="M51,38.7c-0.7,0-1.2,0.5-1.2,1.2c0.4,0.1,0.9,0.1,1.4,0.1c0.4,0,0.7,0,1-0.1c0,0,0,0,0,0
						C52.3,39.3,51.7,38.7,51,38.7z"/>
				</g>
			</g>
		</g>
	</g>
	<g id="XMLID_2108_">
		<g id="XMLID_2110_">
			<path id="XMLID_238_" class="st10" d="M39.3,39.5C39.3,39.5,39.3,39.5,39.3,39.5L39.3,39.5V2.4h-6.4v37.1l0,0c0,0,0,0,0,0v0.1h0
				c0.1,0.6,1.5,1.1,3.2,1.1C37.8,40.7,39.1,40.2,39.3,39.5L39.3,39.5L39.3,39.5z"/>
		</g>
		<g id="XMLID_2109_">
			<ellipse id="XMLID_237_" class="st0" cx="36.1" cy="2.4" rx="3.2" ry="1.2"/>
		</g>
	</g>
	<g id="XMLID_2107_">
		<path id="XMLID_236_" class="st0" d="M33.8,4L22.6,2.6c-0.3,0-0.5-0.3-0.5-0.6l0-0.3c0-0.3,0.3-0.5,0.6-0.5L34,2.6
			c0.3,0,0.5,0.3,0.5,0.6l0,0.3C34.4,3.8,34.1,4,33.8,4z"/>
	</g>
	<g id="XMLID_2106_">
		<circle id="XMLID_235_" class="st0" cx="22.2" cy="1.7" r="1.2"/>
	</g>
	<g id="XMLID_2098_">
		<g id="XMLID_2100_">
			<g id="XMLID_2101_">
				<g id="XMLID_2103_">
					<g id="XMLID_2105_">
						<polygon id="XMLID_234_" class="st11" points="37.7,34.4 29,33 29,35.1 37.7,36.5 42.9,33.7 42.9,31.7 						"/>
					</g>
					<g id="XMLID_2104_">
						<polygon id="XMLID_233_" class="st0" points="39.3,31.2 39.3,31.9 36.5,31.9 32.9,31.9 32.9,31.2 29,33 37.7,34.4 42.9,31.7 
													"/>
					</g>
				</g>
				<g id="XMLID_2102_">
					<ellipse id="XMLID_232_" class="st10" cx="36.1" cy="31.8" rx="3.2" ry="1.2"/>
				</g>
			</g>
		</g>
		<g id="XMLID_2099_">
			<polygon id="XMLID_231_" class="st12" points="37.7,34.4 37.7,36.5 42.9,33.7 42.9,31.7 			"/>
		</g>
	</g>
	<g id="XMLID_2090_">
		<g id="XMLID_2092_">
			<g id="XMLID_2093_">
				<g id="XMLID_2095_">
					<g id="XMLID_2097_">
						<polygon id="XMLID_230_" class="st11" points="37.7,29 29,27.6 29,29.7 37.7,31.1 42.9,28.3 42.9,26.2 						"/>
					</g>
					<g id="XMLID_2096_">
						<polygon id="XMLID_229_" class="st0" points="39.3,25.8 39.3,26.5 36.5,26.5 32.9,26.5 32.9,25.8 29,27.6 37.7,29 42.9,26.2 
													"/>
					</g>
				</g>
				<g id="XMLID_2094_">
					<ellipse id="XMLID_228_" class="st10" cx="36.1" cy="26.4" rx="3.2" ry="1.2"/>
				</g>
			</g>
		</g>
		<g id="XMLID_2091_">
			<polygon id="XMLID_227_" class="st12" points="37.7,29 37.7,31.1 42.9,28.3 42.9,26.2 			"/>
		</g>
	</g>
	<g id="XMLID_2082_">
		<g id="XMLID_2084_">
			<g id="XMLID_2085_">
				<g id="XMLID_2087_">
					<g id="XMLID_2089_">
						<polygon id="XMLID_226_" class="st11" points="37.7,23.6 29,22.2 29,24.2 37.7,25.6 42.9,22.9 42.9,20.8 						"/>
					</g>
					<g id="XMLID_2088_">
						<polygon id="XMLID_225_" class="st0" points="39.3,20.3 39.3,21 36.5,21.1 32.9,21.1 32.9,20.3 29,22.2 37.7,23.6 42.9,20.8 
													"/>
					</g>
				</g>
				<g id="XMLID_2086_">
					<ellipse id="XMLID_224_" class="st10" cx="36.1" cy="21" rx="3.2" ry="1.2"/>
				</g>
			</g>
		</g>
		<g id="XMLID_2083_">
			<polygon id="XMLID_223_" class="st12" points="37.7,23.6 37.7,25.6 42.9,22.9 42.9,20.8 			"/>
		</g>
	</g>
	<g id="XMLID_2074_">
		<g id="XMLID_2076_">
			<g id="XMLID_2077_">
				<g id="XMLID_2079_">
					<g id="XMLID_2081_">
						<polygon id="XMLID_222_" class="st11" points="37.7,18.2 29,16.8 29,18.8 37.7,20.2 42.9,17.4 42.9,15.4 						"/>
					</g>
					<g id="XMLID_2080_">
						<polygon id="XMLID_221_" class="st0" points="39.3,14.9 39.3,15.6 36.5,15.7 32.9,15.7 32.9,14.9 29,16.8 37.7,18.2 
							42.9,15.4 						"/>
					</g>
				</g>
				<g id="XMLID_2078_">
					<ellipse id="XMLID_220_" class="st10" cx="36.1" cy="15.6" rx="3.2" ry="1.2"/>
				</g>
			</g>
		</g>
		<g id="XMLID_2075_">
			<polygon id="XMLID_219_" class="st12" points="37.7,18.2 37.7,20.2 42.9,17.4 42.9,15.4 			"/>
		</g>
	</g>
	<g id="XMLID_2066_">
		<g id="XMLID_2068_">
			<g id="XMLID_2069_">
				<g id="XMLID_2071_">
					<g id="XMLID_2073_">
						<polygon id="XMLID_218_" class="st11" points="37.7,13.3 29,11.9 29,13.9 37.7,15.3 42.9,12.5 42.9,10.5 						"/>
					</g>
					<g id="XMLID_2072_">
						<polygon id="XMLID_217_" class="st0" points="39.3,10 39.3,10.7 36.5,10.8 32.9,10.8 32.9,10 29,11.9 37.7,13.3 42.9,10.5 
													"/>
					</g>
				</g>
				<g id="XMLID_2070_">
					<ellipse id="XMLID_216_" class="st10" cx="36.1" cy="10.7" rx="3.2" ry="1.2"/>
				</g>
			</g>
		</g>
		<g id="XMLID_2067_">
			<polygon id="XMLID_215_" class="st12" points="37.7,13.3 37.7,15.3 42.9,12.5 42.9,10.5 			"/>
		</g>
	</g>
	<g id="XMLID_2003_">
		<g id="XMLID_2061_">
			<g id="XMLID_2062_">
				<g id="XMLID_2063_">
					<g id="XMLID_2065_">
						<polygon id="XMLID_214_" class="st11" points="37.7,3.6 29,2.4 29,5.7 37.7,7.1 42.9,4.3 42.9,1 						"/>
					</g>
					<g id="XMLID_2064_">
						<polygon id="XMLID_213_" class="st0" points="34.1,0 29,2.4 37.7,3.6 42.9,1 						"/>
					</g>
				</g>
			</g>
		</g>
		<g id="XMLID_2060_">
			<polygon id="XMLID_212_" class="st12" points="37.7,3.6 37.7,7.1 42.9,4.3 42.9,1 			"/>
		</g>
		<g id="XMLID_2005_">
			<g id="XMLID_2059_">
				<path id="XMLID_211_" class="st0" d="M51.5,6.3L40.4,4.8c-0.4-0.1-0.7-0.4-0.6-0.8v0c0.1-0.4,0.4-0.7,0.8-0.6l11.1,1.4
					c0.4,0.1,0.7,0.4,0.6,0.8v0C52.2,6.1,51.9,6.3,51.5,6.3z"/>
			</g>
			<g id="XMLID_2058_">
				<circle id="XMLID_210_" class="st3" cx="52.3" cy="5.6" r="1.4"/>
			</g>
		</g>
	</g>
</g>
</svg>
