<?xml version="1.0" encoding="utf-8"?>
<!-- Generator: Adobe Illustrator 19.0.0, SVG Export Plug-In . SVG Version: 6.00 Build 0)  -->
<svg version="1.1" id="Capa_1" xmlns="http://www.w3.org/2000/svg" xmlns:xlink="http://www.w3.org/1999/xlink" x="0px" y="0px"
	 viewBox="0 0 47.2 47.2" style="enable-background:new 0 0 47.2 47.2;" xml:space="preserve">
<style type="text/css">
	.st0{fill:#A3BD31;}
	.st1{fill:#819D33;}
	.st2{fill:#FFFFFF;}
</style>
<g id="XMLID_290_">
	<circle id="XMLID_26_" class="st0" cx="23.6" cy="23.6" r="23.6"/>
	<path id="XMLID_34_" class="st1" d="M27.6,10l-3.3,0.6l-1.4,11.5l-8.7,15.1L27,47C38.2,45.4,46.9,36,47.2,24.4L27.6,10z"/>
	<polygon id="XMLID_289_" class="st0" points="10.5,18.6 19.8,25.4 20.9,22.8 10.7,17.9 	"/>
	<polygon id="XMLID_291_" class="st0" points="19.6,11.5 21.6,12.9 21.6,10.8 	"/>
	<polygon id="XMLID_304_" class="st0" points="10.4,30.2 14.8,33.5 18.7,26.8 	"/>
	<g id="XMLID_19_">
		<g id="XMLID_20_">
			<g id="XMLID_22_">
				<path id="XMLID_31_" class="st2" d="M34.7,34c-0.1-0.3-0.3-0.6-0.6-0.8L26.5,22h0V11.7h0.5c0.5,0,1-0.4,1-1s-0.4-1-1-1h-6.8
					c-0.5,0-1,0.4-1,1s0.4,1,1,1h0.5V22h0l-7.9,11.6l0,0c-0.3,0.4-0.4,0.9-0.4,1.4c0,1.4,1.1,2.5,2.5,2.5h17.4
					c1.4,0,2.5-1.1,2.5-2.5C34.9,34.6,34.8,34.3,34.7,34z"/>
				<path id="XMLID_23_" class="st1" d="M32.9,34.4c-0.1-0.1-0.2-0.2-0.2-0.3l-3.8-5.6H18.3l-4.1,6c-0.1,0.1-0.1,0.3-0.1,0.5
					c0,0.5,0.4,0.8,0.8,0.8h17.4c0.5,0,0.8-0.4,0.8-0.8c0-0.1,0-0.2-0.1-0.3C33.1,34.5,33,34.5,32.9,34.4z"/>
			</g>
			<g id="XMLID_21_">
				<circle id="XMLID_24_" class="st2" cx="22.9" cy="30.6" r="1.1"/>
				<circle id="XMLID_27_" class="st2" cx="24.6" cy="32.7" r="0.8"/>
				<circle id="XMLID_28_" class="st2" cx="23" cy="34.5" r="0.7"/>
			</g>
		</g>
		<g id="XMLID_280_">
			<path id="XMLID_282_" class="st2" d="M36.2,30.5c-0.1,0-0.3,0-0.4-0.1l-12.1-5.6l-12.1,5.6c-0.1,0.1-0.3,0.1-0.4,0.1
				c-0.4,0-0.8-0.2-0.9-0.6c-0.1-0.2-0.1-0.5,0-0.8c0.1-0.3,0.3-0.5,0.5-0.6l10.6-4.9l-10.6-4.9c-0.5-0.2-0.7-0.8-0.5-1.3
				c0.2-0.4,0.5-0.6,0.9-0.6c0.1,0,0.3,0,0.4,0.1l12.1,5.6l12.1-5.6c0.1-0.1,0.3-0.1,0.4-0.1c0.4,0,0.8,0.2,0.9,0.6
				c0.1,0.2,0.1,0.5,0,0.8c-0.1,0.3-0.3,0.5-0.5,0.6L26,23.6l10.6,4.9c0.5,0.2,0.7,0.8,0.5,1.3C36.9,30.3,36.6,30.5,36.2,30.5z"/>
			<path id="XMLID_281_" class="st1" d="M36.2,29.9c-0.1,0-0.1,0-0.2,0l-12.2-5.7c0,0-0.1,0-0.1,0s-0.1,0-0.1,0l-12.2,5.7
				c-0.1,0-0.1,0-0.2,0c-0.2,0-0.3-0.1-0.4-0.2c-0.1-0.2,0-0.4,0.2-0.5l11.2-5.2c0.1,0,0.2-0.2,0.2-0.3c0-0.1-0.1-0.2-0.2-0.3
				l-11.2-5.2c-0.2-0.1-0.3-0.3-0.2-0.5c0.1-0.1,0.2-0.2,0.4-0.2c0.1,0,0.1,0,0.2,0l12.2,5.7c0,0,0.1,0,0.1,0s0.1,0,0.1,0L36,17.4
				c0.1,0,0.1,0,0.2,0c0.2,0,0.3,0.1,0.4,0.2c0.1,0.2,0,0.4-0.2,0.5l-11.2,5.2c-0.1,0-0.2,0.2-0.2,0.3c0,0.1,0.1,0.2,0.2,0.3
				l11.2,5.2c0.2,0.1,0.3,0.3,0.2,0.5C36.5,29.8,36.3,29.9,36.2,29.9L36.2,29.9z"/>
		</g>
	</g>
</g>
</svg>
